<svg width="24" height="25" viewBox="0 0 24 25" fill="none" xmlns="http://www.w3.org/2000/svg">
<path d="M12.7092 12.5003L9.1692 16.0403C8.98295 16.2277 8.87841 16.4811 8.87841 16.7453C8.87841 17.0095 8.98295 17.2629 9.1692 17.4503C9.26217 17.544 9.37277 17.6184 9.49463 17.6692C9.61648 17.72 9.74719 17.7461 9.8792 17.7461C10.0112 17.7461 10.1419 17.72 10.2638 17.6692C10.3856 17.6184 10.4962 17.544 10.5892 17.4503L14.8292 13.2103C14.9229 13.1173 14.9973 13.0067 15.0481 12.8849C15.0989 12.763 15.125 12.6323 15.125 12.5003C15.125 12.3683 15.0989 12.2376 15.0481 12.1157C14.9973 11.9939 14.9229 11.8833 14.8292 11.7903L10.5892 7.5003C10.4958 7.40762 10.3849 7.33429 10.2631 7.28453C10.1413 7.23476 10.0108 7.20953 9.8792 7.2103C9.74759 7.20953 9.61713 7.23476 9.49529 7.28453C9.37346 7.33429 9.26264 7.40762 9.1692 7.5003C8.98295 7.68766 8.87841 7.94111 8.87841 8.2053C8.87841 8.46948 8.98295 8.72293 9.1692 8.9103L12.7092 12.5003Z" fill="#556583"/>
</svg>
