<svg width="24" height="25" viewBox="0 0 24 25" fill="none" xmlns="http://www.w3.org/2000/svg">
<path d="M11.2908 12.4997L14.8308 8.95971C15.017 8.77234 15.1216 8.51889 15.1216 8.25471C15.1216 7.99052 15.017 7.73707 14.8308 7.54971C14.7378 7.45598 14.6272 7.38158 14.5054 7.33081C14.3835 7.28005 14.2528 7.25391 14.1208 7.25391C13.9888 7.25391 13.8581 7.28005 13.7362 7.33081C13.6144 7.38158 13.5038 7.45598 13.4108 7.54971L9.1708 11.7897C9.07707 11.8827 9.00268 11.9933 8.95191 12.1151C8.90114 12.237 8.875 12.3677 8.875 12.4997C8.875 12.6317 8.90114 12.7624 8.95191 12.8843C9.00267 13.0061 9.07707 13.1167 9.1708 13.2097L13.4108 17.4997C13.5042 17.5924 13.6151 17.6657 13.7369 17.7155C13.8587 17.7652 13.9892 17.7905 14.1208 17.7897C14.2524 17.7905 14.3829 17.7652 14.5047 17.7155C14.6265 17.6657 14.7374 17.5924 14.8308 17.4997C15.017 17.3123 15.1216 17.0589 15.1216 16.7947C15.1216 16.5305 15.017 16.2771 14.8308 16.0897L11.2908 12.4997Z" fill="#556583"/>
</svg>
