<svg width="8" height="16" viewBox="0 0 8 16" fill="none" xmlns="http://www.w3.org/2000/svg">
<path d="M0.292893 3.29289C-0.0976311 3.68342 -0.0976311 4.31658 0.292893 4.70711C0.683417 5.09763 1.31658 5.09763 1.70711 4.70711L0.292893 3.29289ZM4 1L4.70711 0.292893C4.31658 -0.0976311 3.68342 -0.0976311 3.29289 0.292893L4 1ZM6.29289 4.70711C6.68342 5.09763 7.31658 5.09763 7.70711 4.70711C8.09763 4.31658 8.09763 3.68342 7.70711 3.29289L6.29289 4.70711ZM3 15C3 15.5523 3.44772 16 4 16C4.55229 16 5 15.5523 5 15H3ZM1.70711 4.70711L4.70711 1.70711L3.29289 0.292893L0.292893 3.29289L1.70711 4.70711ZM3.29289 1.70711L6.29289 4.70711L7.70711 3.29289L4.70711 0.292893L3.29289 1.70711ZM5 15L5 1L3 1L3 15H5Z" fill="#556583"/>
</svg>
