<svg width="8" height="16" viewBox="0 0 8 16" fill="none" xmlns="http://www.w3.org/2000/svg">
<path d="M7.70711 12.7071C8.09763 12.3166 8.09763 11.6834 7.70711 11.2929C7.31658 10.9024 6.68342 10.9024 6.29289 11.2929L7.70711 12.7071ZM4 15L3.29289 15.7071C3.68342 16.0976 4.31658 16.0976 4.70711 15.7071L4 15ZM1.70711 11.2929C1.31658 10.9024 0.683417 10.9024 0.292893 11.2929C-0.0976311 11.6834 -0.0976311 12.3166 0.292893 12.7071L1.70711 11.2929ZM5 1C5 0.447715 4.55229 0 4 0C3.44772 0 3 0.447715 3 1L5 1ZM6.29289 11.2929L3.29289 14.2929L4.70711 15.7071L7.70711 12.7071L6.29289 11.2929ZM4.70711 14.2929L1.70711 11.2929L0.292893 12.7071L3.29289 15.7071L4.70711 14.2929ZM3 1L3 15H5L5 1L3 1Z" fill="#E1E1E4"/>
</svg>
