<svg width="28" height="28" viewBox="0 0 28 28" fill="none" xmlns="http://www.w3.org/2000/svg">
<g clip-path="url(#clip0_200_5666)">
<path d="M18.8887 6.33203V14.1098V21.8876M18.8887 6.33203H26M18.8887 6.33203H12" stroke="#2B2C2E" stroke-width="2" stroke-linecap="round" stroke-linejoin="round"/>
<path d="M10.292 14.1897H7.14199V11.0397C7.14199 10.8695 7.07439 10.7063 6.95405 10.586C6.83372 10.4657 6.67051 10.398 6.50033 10.398C6.33014 10.398 6.16693 10.4657 6.0466 10.586C5.92626 10.7063 5.85866 10.8695 5.85866 11.0397V14.1897H2.70866C2.53848 14.1897 2.37527 14.2573 2.25493 14.3777C2.1346 14.498 2.06699 14.6612 2.06699 14.8314C2.06699 15.0016 2.1346 15.1648 2.25493 15.2851C2.37527 15.4054 2.53848 15.473 2.70866 15.473H5.85866V18.623C5.85866 18.7932 5.92626 18.9564 6.0466 19.0768C6.16693 19.1971 6.33014 19.2647 6.50033 19.2647C6.67051 19.2647 6.83372 19.1971 6.95405 19.0768C7.07439 18.9564 7.14199 18.7932 7.14199 18.623V15.473H10.292C10.4622 15.473 10.6254 15.4054 10.7457 15.2851C10.8661 15.1648 10.9337 15.0016 10.9337 14.8314C10.9337 14.6612 10.8661 14.498 10.7457 14.3777C10.6254 14.2573 10.4622 14.1897 10.292 14.1897Z" fill="#2B2C2E" stroke="#2B2C2E" stroke-width="0.2"/>
</g>
<defs>
<clipPath id="clip0_200_5666">
<rect width="26.6667" height="26.6667" fill="white" transform="translate(0.666016 0.666016)"/>
</clipPath>
</defs>
</svg>
