<svg width="13" height="13" viewBox="0 0 13 13" fill="none" xmlns="http://www.w3.org/2000/svg">
<path d="M0.866473 12.0724C0.8752 12.3954 1.14405 12.6501 1.46697 12.6413L6.72927 12.4991C7.05219 12.4904 7.30689 12.2215 7.29816 11.8986C7.28944 11.5757 7.02058 11.321 6.69766 11.3297L2.02007 11.4561L1.89365 6.77854C1.88492 6.45562 1.61607 6.20092 1.29315 6.20965C0.970225 6.21838 0.715521 6.48723 0.724249 6.81015L0.866473 12.0724ZM12.5642 0.92763C12.5554 0.60471 12.2866 0.350006 11.9637 0.358734L6.70138 0.500958C6.37846 0.509685 6.12375 0.77854 6.13248 1.10146C6.14121 1.42438 6.41006 1.67908 6.73298 1.67036L11.4106 1.54393L11.537 6.22153C11.5457 6.54445 11.8146 6.79915 12.1375 6.79043C12.4604 6.7817 12.7151 6.51284 12.7064 6.18992L12.5642 0.92763ZM1.87579 12.4589L12.4041 1.3457L11.5549 0.541163L1.02655 11.6544L1.87579 12.4589Z" fill="black"/>
</svg>
