<svg width="41" height="41" viewBox="0 0 41 41" fill="none" xmlns="http://www.w3.org/2000/svg">
<path d="M35.7042 3.41602H5.29591C4.79753 3.41602 4.31956 3.614 3.96714 3.96641C3.61473 4.31882 3.41675 4.7968 3.41675 5.29518V35.7035C3.41675 35.9503 3.46535 36.1946 3.55979 36.4226C3.65423 36.6506 3.79265 36.8578 3.96714 37.0323C4.14164 37.2068 4.3488 37.3452 4.57679 37.4396C4.80478 37.5341 5.04914 37.5827 5.29591 37.5827H21.6617V24.3431H17.2201V19.2181H21.6617V15.3743C21.5697 14.4719 21.6763 13.5603 21.9739 12.7034C22.2715 11.8466 22.753 11.0652 23.3845 10.4141C24.0161 9.76295 24.7825 9.2579 25.6299 8.93434C26.4773 8.61077 27.3853 8.47653 28.2901 8.54102C29.6197 8.53283 30.9487 8.60128 32.2705 8.74602V13.3585H29.5542C27.4017 13.3585 26.9917 14.3835 26.9917 15.8698V19.1668H32.1167L31.4505 24.2918H26.9917V37.5827H35.7042C35.951 37.5827 36.1954 37.5341 36.4234 37.4396C36.6514 37.3452 36.8585 37.2068 37.033 37.0323C37.2075 36.8578 37.3459 36.6506 37.4404 36.4226C37.5348 36.1946 37.5834 35.9503 37.5834 35.7035V5.29518C37.5834 5.04841 37.5348 4.80405 37.4404 4.57606C37.3459 4.34807 37.2075 4.14091 37.033 3.96641C36.8585 3.79191 36.6514 3.6535 36.4234 3.55906C36.1954 3.46462 35.951 3.41602 35.7042 3.41602Z" fill="white" fill-opacity="0.9"/>
</svg>
