<svg width="25" height="24" viewBox="0 0 25 24" fill="none" xmlns="http://www.w3.org/2000/svg">
<path d="M1.55469 10.8665V21.1381C1.55469 21.8229 1.55469 22.1654 1.68797 22.4269C1.8052 22.657 1.99213 22.844 2.22222 22.9613C2.48379 23.0945 2.82587 23.0946 3.51071 23.0946H16.7171C17.4019 23.0946 17.7453 23.0945 18.0068 22.9613C18.2369 22.844 18.423 22.657 18.5403 22.4269C18.6736 22.1654 18.6736 21.8229 18.6736 21.1381V12.823C18.6736 12.1381 18.6736 11.7957 18.5403 11.5341C18.423 11.3041 18.2369 11.117 18.0068 10.9997C17.7453 10.8665 17.4024 10.8665 16.7175 10.8665H1.55469ZM1.55469 10.8665V10.3773C1.55469 9.69247 1.55469 9.3501 1.68797 9.08852C1.8052 8.85844 1.99213 8.67136 2.22222 8.55412C2.48379 8.42085 2.82587 8.42085 3.51071 8.42085H7.25484C7.606 8.42085 7.78231 8.42085 7.944 8.46611C8.08724 8.5062 8.22146 8.57205 8.34104 8.6605C8.47604 8.76034 8.584 8.89895 8.7996 9.17615L10.1143 10.8664M18.674 15.7577H21.6088C22.2936 15.7577 22.6365 15.7577 22.8981 15.6244C23.1282 15.5072 23.3143 15.3202 23.4315 15.0901C23.5648 14.8285 23.5648 14.4861 23.5648 13.8012V5.48611C23.5648 4.80128 23.5648 4.45886 23.4315 4.19728C23.3143 3.9672 23.1282 3.78012 22.8981 3.66288C22.6365 3.5296 22.2936 3.5296 21.6088 3.5296H6.44593M6.44593 3.5296V8.42084M6.44593 3.5296V3.04045C6.44593 2.35561 6.44593 2.01324 6.57921 1.75166C6.69644 1.52158 6.88337 1.3345 7.11346 1.21726C7.37503 1.08398 7.71711 1.08398 8.40195 1.08398H12.1461C12.4972 1.08398 12.6735 1.08398 12.8352 1.12925C12.9785 1.16934 13.1127 1.23519 13.2323 1.32364C13.3673 1.42348 13.4752 1.56209 13.6908 1.83928L15.0055 3.52958" stroke="white" stroke-width="1.69312" stroke-linecap="round" stroke-linejoin="round"/>
</svg>
