<svg width="24" height="24" viewBox="0 0 24 24" fill="none" xmlns="http://www.w3.org/2000/svg">
<path d="M1.12109 10.8665V21.1381C1.12109 21.8229 1.12109 22.1654 1.25437 22.4269C1.37161 22.657 1.55854 22.844 1.78862 22.9613C2.0502 23.0945 2.39227 23.0946 3.07711 23.0946H16.2835C16.9683 23.0946 17.3117 23.0945 17.5732 22.9613C17.8033 22.844 17.9895 22.657 18.1067 22.4269C18.24 22.1654 18.24 21.8229 18.24 21.1381V12.823C18.24 12.1381 18.24 11.7957 18.1067 11.5341C17.9895 11.3041 17.8033 11.117 17.5732 10.9997C17.3117 10.8665 16.9688 10.8665 16.2839 10.8665H1.12109ZM1.12109 10.8665V10.3773C1.12109 9.69247 1.12109 9.3501 1.25437 9.08852C1.37161 8.85844 1.55854 8.67136 1.78862 8.55412C2.0502 8.42085 2.39227 8.42085 3.07711 8.42085H6.82125C7.17241 8.42085 7.34871 8.42085 7.51041 8.46611C7.65364 8.5062 7.78787 8.57205 7.90745 8.6605C8.04245 8.76034 8.15041 8.89895 8.366 9.17615L9.68068 10.8664M18.2404 15.7577H21.1752C21.86 15.7577 22.2029 15.7577 22.4645 15.6244C22.6946 15.5072 22.8807 15.3202 22.9979 15.0901C23.1312 14.8285 23.1312 14.4861 23.1312 13.8012V5.48611C23.1312 4.80128 23.1312 4.45886 22.9979 4.19728C22.8807 3.9672 22.6946 3.78012 22.4645 3.66288C22.2029 3.5296 21.86 3.5296 21.1752 3.5296H6.01233M6.01233 3.5296V8.42084M6.01233 3.5296V3.04045C6.01233 2.35561 6.01233 2.01324 6.14561 1.75166C6.26285 1.52158 6.44978 1.3345 6.67986 1.21726C6.94144 1.08398 7.28351 1.08398 7.96835 1.08398H11.7125C12.0637 1.08398 12.24 1.08398 12.4017 1.12925C12.5449 1.16934 12.6791 1.23519 12.7987 1.32364C12.9337 1.42348 13.0417 1.56209 13.2572 1.83928L14.5719 3.52958" stroke="#9CA3AF" stroke-width="1.69312" stroke-linecap="round" stroke-linejoin="round"/>
</svg>
