<svg width="41" height="41" viewBox="0 0 41 41" fill="none" xmlns="http://www.w3.org/2000/svg">
<path d="M20.5001 16.2627C19.6621 16.2627 18.843 16.5112 18.1463 16.9767C17.4496 17.4422 16.9066 18.1039 16.5859 18.878C16.2652 19.6522 16.1813 20.504 16.3448 21.3259C16.5083 22.1477 16.9118 22.9026 17.5043 23.4951C18.0968 24.0876 18.8517 24.4911 19.6735 24.6546C20.4954 24.8181 21.3472 24.7342 22.1214 24.4135C22.8955 24.0929 23.5572 23.5498 24.0227 22.8531C24.4883 22.1564 24.7367 21.3373 24.7367 20.4993C24.7367 19.943 24.6272 19.3921 24.4143 18.878C24.2013 18.364 23.8893 17.897 23.4959 17.5036C23.1024 17.1102 22.6354 16.7981 22.1214 16.5852C21.6074 16.3723 21.0564 16.2627 20.5001 16.2627ZM37.4638 12.0773C37.4548 10.758 37.2119 9.45082 36.7463 8.21643C36.4034 7.31317 35.8729 6.49288 35.1897 5.80971C34.5065 5.12653 33.6863 4.59599 32.783 4.2531C31.5486 3.78752 30.2414 3.54459 28.9222 3.5356C26.7184 3.41602 26.0692 3.41602 20.5001 3.41602C14.9309 3.41602 14.2817 3.41602 12.078 3.5356C10.7588 3.54459 9.45156 3.78752 8.21716 4.2531C7.3139 4.59599 6.49362 5.12653 5.81044 5.80971C5.12726 6.49288 4.59672 7.31317 4.25383 8.21643C3.78825 9.45082 3.54532 10.758 3.53633 12.0773C3.41675 14.281 3.41675 14.9302 3.41675 20.4993C3.41675 26.0685 3.41675 26.7177 3.53633 28.9214C3.55472 30.2453 3.79732 31.5565 4.25383 32.7993C4.5952 33.6985 5.1253 34.514 5.80841 35.191C6.48866 35.8783 7.3107 36.4088 8.21716 36.7456C9.45156 37.2112 10.7588 37.4541 12.078 37.4631C14.2817 37.5827 14.9309 37.5827 20.5001 37.5827C26.0692 37.5827 26.7184 37.5827 28.9222 37.4631C30.2414 37.4541 31.5486 37.2112 32.783 36.7456C33.6895 36.4088 34.5115 35.8783 35.1917 35.191C35.8749 34.514 36.405 33.6985 36.7463 32.7993C37.2115 31.5589 37.4543 30.2462 37.4638 28.9214C37.5834 26.7177 37.5834 26.0685 37.5834 20.4993C37.5834 14.9302 37.5834 14.281 37.4638 12.0773ZM33.1247 25.7439C33.0698 26.7982 32.8449 27.8366 32.4584 28.8189C32.1268 29.6384 31.6337 30.3828 31.0086 31.0079C30.3835 31.633 29.6391 32.126 28.8197 32.4577C27.828 32.8226 26.7838 33.0245 25.7276 33.0556C24.378 33.0556 24.0192 33.0556 20.5001 33.0556C16.9809 33.0556 16.6222 33.0556 15.2726 33.0556C14.2164 33.0245 13.1722 32.8226 12.1805 32.4577C11.3333 32.1429 10.5683 31.6406 9.94258 30.9885C9.3236 30.3757 8.84556 29.6353 8.54175 28.8189C8.17541 27.8283 7.97903 26.7829 7.96091 25.7268C7.96091 24.3773 7.96091 24.0185 7.96091 20.4993C7.96091 16.9802 7.96091 16.6214 7.96091 15.2718C7.97903 14.2158 8.17541 13.1704 8.54175 12.1798C8.85656 11.3326 9.3588 10.5676 10.0109 9.94185C10.6265 9.32621 11.3661 8.84868 12.1805 8.54102C13.1722 8.17613 14.2164 7.97421 15.2726 7.9431C16.6222 7.9431 16.9809 7.9431 20.5001 7.9431C24.0192 7.9431 24.378 7.9431 25.7276 7.9431C26.7838 7.97421 27.828 8.17613 28.8197 8.54102C29.6668 8.85583 30.4319 9.35807 31.0576 10.0102C31.6766 10.623 32.1546 11.3634 32.4584 12.1798C32.8233 13.1714 33.0252 14.2156 33.0563 15.2718C33.0563 16.6214 33.0563 16.9802 33.0563 20.4993C33.0563 24.0185 33.1759 24.3773 33.1247 25.7268V25.7439ZM30.3913 13.0339C30.1879 12.4821 29.8672 11.981 29.4514 11.5651C29.0355 11.1493 28.5344 10.8286 27.9826 10.6252C27.2249 10.3625 26.4269 10.2353 25.6251 10.2493C24.2926 10.2493 23.9167 10.2493 20.5001 10.2493C17.0834 10.2493 16.7076 10.2493 15.3751 10.2493C14.5692 10.2572 13.7711 10.4076 13.0176 10.6935C12.4742 10.8877 11.9784 11.1953 11.5631 11.5959C11.1478 11.9964 10.8225 12.4808 10.6088 13.0168C10.3607 13.7777 10.2395 14.5742 10.2501 15.3743C10.2501 16.7068 10.2501 17.0827 10.2501 20.4993C10.2501 23.916 10.2501 24.2918 10.2501 25.6243C10.267 26.4293 10.4171 27.2259 10.6942 27.9818C10.8976 28.5337 11.2183 29.0348 11.6342 29.4506C12.0501 29.8665 12.5512 30.1872 13.103 30.3906C13.8319 30.6587 14.5989 30.8086 15.3751 30.8348C16.7076 30.8348 17.0834 30.8348 20.5001 30.8348C23.9167 30.8348 24.2926 30.8348 25.6251 30.8348C26.431 30.8269 27.2291 30.6765 27.9826 30.3906C28.5344 30.1872 29.0355 29.8665 29.4514 29.4506C29.8672 29.0348 30.1879 28.5337 30.3913 27.9818C30.6772 27.2284 30.8276 26.4302 30.8355 25.6243C30.8355 24.2918 30.8355 23.916 30.8355 20.4993C30.8355 17.0827 30.8355 16.7068 30.8355 15.3743C30.836 14.5677 30.6853 13.768 30.3913 13.0168V13.0339ZM20.5001 27.0252C19.6439 27.0252 18.7961 26.8563 18.0053 26.5281C17.2145 26.1999 16.4963 25.719 15.8916 25.1128C15.287 24.5066 14.808 23.787 14.4819 22.9954C14.1558 22.2037 13.9891 21.3555 13.9913 20.4993C13.9913 19.2079 14.3745 17.9456 15.0923 16.872C15.8102 15.7985 16.8304 14.9621 18.0238 14.4686C19.2172 13.9752 20.5302 13.847 21.7966 14.1002C23.0629 14.3534 24.2257 14.9766 25.1377 15.891C26.0496 16.8053 26.6698 17.9697 26.9197 19.2367C27.1695 20.5037 27.0379 21.8164 26.5413 23.0085C26.0448 24.2007 25.2057 25.2187 24.1303 25.9337C23.0549 26.6487 21.7915 27.0286 20.5001 27.0252ZM27.3334 15.2548C26.9558 15.2148 26.6063 15.0365 26.3523 14.7542C26.0983 14.4719 25.9578 14.1056 25.9578 13.7258C25.9578 13.3461 26.0983 12.9797 26.3523 12.6974C26.6063 12.4151 26.9558 12.2368 27.3334 12.1968C27.7111 12.2368 28.0605 12.4151 28.3145 12.6974C28.5685 12.9797 28.7091 13.3461 28.7091 13.7258C28.7091 14.1056 28.5685 14.4719 28.3145 14.7542C28.0605 15.0365 27.7111 15.2148 27.3334 15.2548Z" fill="white" fill-opacity="0.9"/>
</svg>
