<svg width="26" height="26" viewBox="0 0 26 26" fill="none" xmlns="http://www.w3.org/2000/svg">
<path d="M19.9365 21.7637C20.2537 22.1072 20.7892 22.1286 21.1328 21.8115C21.4764 21.4944 21.4978 20.9588 21.1806 20.6152L19.9365 21.7637ZM13.0586 13.0645H12.212C12.212 13.2773 12.2922 13.4823 12.4365 13.6387L13.0586 13.0645ZM13.0586 23.4679C7.31293 23.4679 2.65515 18.8101 2.65515 13.0645H0.962033C0.962033 19.7452 6.37785 25.161 13.0586 25.161V23.4679ZM2.65515 13.0645C2.65515 7.31879 7.31293 2.66101 13.0586 2.66101V0.967892C6.37785 0.967892 0.962033 6.38371 0.962033 13.0645H2.65515ZM13.0586 2.66101C18.8043 2.66101 23.462 7.31879 23.462 13.0645H25.1552C25.1552 6.38371 19.7393 0.967892 13.0586 0.967892V2.66101ZM23.462 13.0645C23.462 18.8101 18.8043 23.4679 13.0586 23.4679V25.161C19.7393 25.161 25.1552 19.7452 25.1552 13.0645H23.462ZM21.1806 20.6152L13.6806 12.4902L12.4365 13.6387L19.9365 21.7637L21.1806 20.6152ZM13.9052 13.0645V1.81445H12.212V13.0645H13.9052ZM13.0586 13.911H24.3086V12.2179H13.0586V13.911Z" fill="#9CA3AF"/>
</svg>
