<svg width="23.934814" height="23.934570" viewBox="0 0 23.9348 23.9346" fill="none" xmlns="http://www.w3.org/2000/svg" xmlns:xlink="http://www.w3.org/1999/xlink">
	<desc>
			Created with Pixso.
	</desc>
	<defs>
		<clipPath id="clip4_3454">
			<rect id="light-mode" width="22.937531" height="22.937531" transform="translate(0.498642 0.498642)" fill="white" fill-opacity="0"/>
		</clipPath>
	</defs>
	<rect id="light-mode" width="23.934814" height="23.934814" fill="#FFFFFF" fill-opacity="0"/>
	<rect id="light-mode" width="22.937531" height="22.937531" transform="translate(0.498642 0.498642)" fill="#FFFFFF" fill-opacity="0"/>
	<g clip-path="url(#clip4_3454)">
		<path id="Vector" d="M11.9674 20.9434L11.9674 20.9434" stroke="#FFFFFF" stroke-opacity="1.000000" stroke-width="1.994568" stroke-linejoin="round" stroke-linecap="round"/>
		<path id="Vector" d="M18.3101 18.3105L19.7262 19.7266" stroke="#FFFFFF" stroke-opacity="1.000000" stroke-width="1.994568" stroke-linejoin="round" stroke-linecap="round"/>
		<path id="Vector" d="M4.2085 19.7266L5.62463 18.3105" stroke="#FFFFFF" stroke-opacity="1.000000" stroke-width="1.994568" stroke-linejoin="round" stroke-linecap="round"/>
		<path id="Vector" d="M20.943 11.9678L22.9376 11.9678" stroke="#FFFFFF" stroke-opacity="1.000000" stroke-width="1.994568" stroke-linejoin="round" stroke-linecap="round"/>
		<path id="Vector" d="M0.997314 11.9678L2.99182 11.9678" stroke="#FFFFFF" stroke-opacity="1.000000" stroke-width="1.994568" stroke-linejoin="round" stroke-linecap="round"/>
		<path id="Vector" d="M11.9674 16.9541C9.2135 16.9541 6.98096 14.7217 6.98096 11.9678C6.98096 9.21387 9.2135 6.98145 11.9674 6.98145C14.7213 6.98145 16.9537 9.21387 16.9537 11.9678C16.9537 14.7217 14.7213 16.9541 11.9674 16.9541Z" stroke="#FFFFFF" stroke-opacity="1.000000" stroke-width="1.994568" stroke-linejoin="round"/>
		<path id="Vector" d="M18.3101 5.625L19.7262 4.20898" stroke="#FFFFFF" stroke-opacity="1.000000" stroke-width="1.994568" stroke-linejoin="round" stroke-linecap="round"/>
		<path id="Vector" d="M4.2085 4.20898L5.62463 5.625" stroke="#FFFFFF" stroke-opacity="1.000000" stroke-width="1.994568" stroke-linejoin="round" stroke-linecap="round"/>
		<path id="Vector" d="M11.9674 0.998047L11.9674 0.998047" stroke="#FFFFFF" stroke-opacity="1.000000" stroke-width="1.994568" stroke-linejoin="round" stroke-linecap="round"/>
	</g>
</svg>
