<svg width="23.934814" height="23.934570" viewBox="0 0 23.9348 23.9346" fill="none" xmlns="http://www.w3.org/2000/svg" xmlns:xlink="http://www.w3.org/1999/xlink">
	<desc>
			Created with Pixso.
	</desc>
	<defs>
		<clipPath id="clip4_3444">
			<rect id="light-mode" width="22.937531" height="22.937531" transform="translate(0.498642 0.498642)" fill="white" fill-opacity="0"/>
		</clipPath>
	</defs>
	<rect id="light-mode" width="23.934814" height="23.934814" fill="#FFFFFF" fill-opacity="0"/>
	<rect id="light-mode" width="22.937531" height="22.937531" transform="translate(0.498642 0.498642)" fill="#FFFFFF" fill-opacity="0"/>
	<g clip-path="url(#clip4_3444)">
		<path id="Vector" d="M11.9673 20.9434L11.9673 20.9434" stroke="#323232" stroke-opacity="1.000000" stroke-width="1.994568" stroke-linejoin="round" stroke-linecap="round"/>
		<path id="Vector" d="M18.3101 18.3105L19.7263 19.7266" stroke="#323232" stroke-opacity="1.000000" stroke-width="1.994568" stroke-linejoin="round" stroke-linecap="round"/>
		<path id="Vector" d="M4.2085 19.7266L5.62476 18.3105" stroke="#323232" stroke-opacity="1.000000" stroke-width="1.994568" stroke-linejoin="round" stroke-linecap="round"/>
		<path id="Vector" d="M20.9429 11.9678L22.9375 11.9678" stroke="#323232" stroke-opacity="1.000000" stroke-width="1.994568" stroke-linejoin="round" stroke-linecap="round"/>
		<path id="Vector" d="M0.99707 11.9678L2.9917 11.9678" stroke="#323232" stroke-opacity="1.000000" stroke-width="1.994568" stroke-linejoin="round" stroke-linecap="round"/>
		<path id="Vector" d="M11.9673 16.9531C9.21338 16.9531 6.98096 14.7207 6.98096 11.9668C6.98096 9.21289 9.21338 6.98047 11.9673 6.98047C14.7212 6.98047 16.9539 9.21289 16.9539 11.9668C16.9539 14.7207 14.7212 16.9531 11.9673 16.9531Z" stroke="#323232" stroke-opacity="1.000000" stroke-width="1.994568" stroke-linejoin="round"/>
		<path id="Vector" d="M18.3101 5.62402L19.7263 4.20801" stroke="#323232" stroke-opacity="1.000000" stroke-width="1.994568" stroke-linejoin="round" stroke-linecap="round"/>
		<path id="Vector" d="M4.2085 4.20801L5.62476 5.62402" stroke="#323232" stroke-opacity="1.000000" stroke-width="1.994568" stroke-linejoin="round" stroke-linecap="round"/>
		<path id="Vector" d="M11.9673 0.99707L11.9673 0.99707" stroke="#323232" stroke-opacity="1.000000" stroke-width="1.994568" stroke-linejoin="round" stroke-linecap="round"/>
	</g>
</svg>
