<svg width="29" height="26" viewBox="0 0 29 26" fill="none" xmlns="http://www.w3.org/2000/svg">
<path fill-rule="evenodd" clip-rule="evenodd" d="M13.482 1.63654V3.75916C12.7862 3.71235 12.0642 3.54009 11.3859 3.19951C9.88658 2.44641 6.43046 2.36486 6.79314 6.07999C7.15624 9.79512 11.7155 9.16437 13.2954 8.92751C13.3565 8.91835 13.4188 8.91072 13.482 8.90421V10.1366C13.3631 10.1265 13.2402 10.1199 13.1126 10.1175C10.033 10.058 10.1003 12.6166 10.722 13.5541C11.1127 14.1434 12.1062 14.613 13.482 14.5519V15.7905C12.222 16.1225 11.7624 16.8826 11.9234 17.8076C12.0248 18.3905 12.6802 18.7971 13.482 18.9066V22.2088L2.02874 1.63654H13.482ZM19.84 2.77784C20.1717 2.77004 20.2022 3.20471 20.2022 3.20471C20.2022 3.20471 20.1525 3.26024 19.9927 3.24853C19.8325 3.23638 19.512 3.11795 19.4777 3.06676C19.4434 3.01514 19.5083 2.78613 19.84 2.77784ZM14.6532 18.855C15.1783 18.7361 15.687 18.4823 16.0835 18.0652C15.9961 18.1493 15.5331 18.5564 14.6532 18.6671V16.2277C15.685 15.9531 16.7377 15.4496 16.8335 13.5298C16.8335 13.5298 19.9128 11.9329 18.3257 9.40296C17.5014 8.08878 16.0638 7.70907 14.6532 7.6407V5.40507C15.9316 5.24552 16.6899 4.74547 17.1226 4.55776C17.6706 4.32047 18.119 4.70265 18.1688 4.81631C18.2186 4.92997 18.977 5.94247 19.2405 5.98412C19.5041 6.02533 19.8329 5.94247 19.6538 5.62232C19.6045 5.53426 19.5417 5.43709 19.4756 5.33254C19.5342 5.32256 20.0103 5.24799 20.1788 5.36638C20.3583 5.49262 20.4624 5.90343 20.6423 5.939C20.8222 5.97462 20.9933 5.8414 20.9933 5.8414C20.9933 5.8414 20.7109 5.95679 20.6168 5.8414C20.5227 5.726 20.3345 5.26443 20.1031 5.22018C19.8747 5.17594 19.6208 5.27398 19.3167 5.07269C19.1953 4.86056 19.0891 4.6302 19.0615 4.39595C19.0084 3.94479 19.1953 3.89663 19.4744 3.77257C19.4744 3.77257 18.7469 3.62811 18.6172 4.08274C18.488 4.53737 18.7766 4.97118 18.7766 4.97118C18.7766 4.97118 18.3186 4.57858 18.3085 3.98947C18.2985 3.40079 18.8766 3.442 19.215 3.45242C19.5538 3.46239 20.2416 3.58646 20.132 3.99988C20.0257 4.40029 19.8822 4.70395 19.8734 4.72261C19.8931 4.69658 20.3624 4.06712 20.421 3.82419C20.421 3.82419 20.6502 3.70012 20.6302 3.89663C20.6101 4.09272 20.3909 4.5994 20.3411 4.68183C20.3411 4.68183 20.69 4.4441 20.7996 3.87581C20.7996 3.87581 21.2777 3.53484 21.1384 3.26631C21.1384 3.26631 21.0886 3.15265 20.7996 3.10103C20.5105 3.04941 20.5206 2.99778 20.3909 2.83207C20.2616 2.66683 19.9931 2.4937 19.2405 2.62688C19.2405 2.62688 18.9059 2.32321 18.4876 2.36659C18.0692 2.40997 16.9398 3.01731 15.7685 3.45111C15.4349 3.57471 15.0572 3.66836 14.6532 3.72198V1.63654H26.1065L14.6532 22.2088V18.855ZM13.482 18.6136C12.2386 18.2873 12.2408 17.0401 13.2804 16.6003C13.3444 16.5732 13.4118 16.5485 13.482 16.5254V18.6136ZM15.9572 13.9471C15.9572 13.9471 15.9008 15.1334 14.6532 15.5508V14.3837C15.0666 14.2854 15.5026 14.1425 15.9572 13.9471ZM13.482 13.5863C12.4411 13.6466 11.5188 13.2246 11.4561 12.4917C11.3859 11.6721 11.9539 11.0062 13.482 11.1254V13.5863ZM15.894 12.7732C15.894 12.7732 15.4483 13.0927 14.6532 13.3467V11.4729C15.4987 11.957 15.894 12.7732 15.894 12.7732ZM14.6532 8.92265C16.1276 9.1035 17.5893 9.85347 17.3552 11.0271C17.1816 11.8987 16.6202 12.2275 16.6202 12.2275C16.6202 12.2275 16.2143 10.956 14.6532 10.3866V8.92265ZM13.482 7.64305C12.6165 7.68014 11.8369 7.77349 11.3143 7.75709C9.75109 7.70764 8.68518 7.04478 8.5668 6.23399C8.448 5.42321 8.73245 4.29361 10.2246 4.5634C11.707 4.83184 11.7631 5.36377 13.482 5.44624V7.64305ZM0 0.421875L14.0676 25.6901L28.1352 0.421875H0Z" fill="white" fill-opacity="0.9"/>
</svg>
