<svg width="39" height="34" viewBox="0 0 39 34" fill="none" xmlns="http://www.w3.org/2000/svg">
<path fill-rule="evenodd" clip-rule="evenodd" d="M18.4002 2.428V5.21354C17.4506 5.15212 16.4653 4.92605 15.5395 4.4791C13.4932 3.49081 8.77632 3.38378 9.27131 8.2592C9.76686 13.1346 15.9893 12.3069 18.1457 11.996C18.229 11.984 18.314 11.974 18.4002 11.9655V13.5827C18.238 13.5695 18.0702 13.5608 17.8962 13.5576C13.6931 13.4796 13.785 16.8373 14.6334 18.0675C15.1667 18.8409 16.5226 19.4571 18.4002 19.377V21.0024C16.6806 21.4381 16.0534 22.4356 16.273 23.6494C16.4115 24.4144 17.306 24.948 18.4002 25.0917V29.4253L2.76884 2.428H18.4002ZM27.0777 3.92575C27.5304 3.9155 27.5721 4.48593 27.5721 4.48593C27.5721 4.48593 27.5041 4.5588 27.2861 4.54343C27.0674 4.52749 26.6301 4.37207 26.5833 4.3049C26.5364 4.23715 26.625 3.93662 27.0777 3.92575ZM19.9988 25.024C20.7154 24.8679 21.4097 24.535 21.9508 23.9876C21.8315 24.0979 21.1996 24.6321 19.9988 24.7774V21.5761C21.4069 21.2158 22.8437 20.555 22.9745 18.0356C22.9745 18.0356 27.177 15.9401 25.0109 12.62C23.886 10.8954 21.9239 10.3971 19.9988 10.3073V7.37349C21.7435 7.16411 22.7785 6.50788 23.369 6.26155C24.1169 5.95015 24.7289 6.4517 24.7969 6.60085C24.8648 6.75 25.8999 8.07873 26.2595 8.13338C26.6192 8.18747 27.068 8.07873 26.8236 7.65859C26.7562 7.54303 26.6706 7.41551 26.5804 7.27831C26.6603 7.26521 27.3101 7.16735 27.5401 7.32271C27.785 7.48838 27.9272 8.0275 28.1727 8.07418C28.4182 8.12092 28.6517 7.94609 28.6517 7.94609C28.6517 7.94609 28.2664 8.09752 28.1379 7.94609C28.0095 7.79465 27.7525 7.18893 27.4368 7.13086C27.1251 7.07279 26.7785 7.20145 26.3635 6.9373C26.1979 6.65892 26.0529 6.35662 26.0152 6.04921C25.9427 5.45714 26.1979 5.39395 26.5787 5.23113C26.5787 5.23113 25.5859 5.04156 25.4089 5.63818C25.2325 6.2348 25.6264 6.80409 25.6264 6.80409C25.6264 6.80409 25.0012 6.28888 24.9875 5.51578C24.9739 4.74325 25.7628 4.79733 26.2247 4.811C26.6872 4.82409 27.6257 4.98691 27.4762 5.52944C27.3312 6.0549 27.1353 6.4534 27.1233 6.47788C27.1502 6.44373 27.7907 5.61768 27.8707 5.29888C27.8707 5.29888 28.1835 5.13606 28.1561 5.39395C28.1287 5.65127 27.8296 6.3162 27.7616 6.42437C27.7616 6.42437 28.2378 6.1124 28.3874 5.36663C28.3874 5.36663 29.0399 4.91916 28.8498 4.56677C28.8498 4.56677 28.7819 4.41762 28.3874 4.34987C27.9928 4.28213 28.0066 4.21438 27.8296 3.99691C27.6532 3.78007 27.2866 3.55286 26.2595 3.72764C26.2595 3.72764 25.8028 3.32913 25.2319 3.38606C24.661 3.44299 23.1195 4.24 21.5209 4.80929C21.0656 4.97148 20.5501 5.09439 19.9988 5.16476V2.428H35.6302L19.9988 29.4253V25.024ZM18.4002 24.7072C16.7032 24.2789 16.7063 22.6422 18.1251 22.0651C18.2125 22.0295 18.3045 21.9972 18.4002 21.9668V24.7072ZM21.7784 18.5833C21.7784 18.5833 21.7014 20.1401 19.9988 20.6878V19.1562C20.563 19.0273 21.158 18.8397 21.7784 18.5833ZM18.4002 18.1099C16.9797 18.1889 15.721 17.6352 15.6353 16.6733C15.5396 15.5978 16.3147 14.724 18.4002 14.8804V18.1099ZM21.6922 17.0428C21.6922 17.0428 21.0839 17.4621 19.9988 17.7954V15.3364C21.1527 15.9716 21.6922 17.0428 21.6922 17.0428ZM19.9988 11.9896C22.011 12.227 24.006 13.2112 23.6864 14.7514C23.4495 15.8951 22.6833 16.3266 22.6833 16.3266C22.6833 16.3266 22.1294 14.6581 19.9988 13.9108V11.9896ZM18.4002 10.3104C17.2191 10.3591 16.1551 10.4816 15.4418 10.4601C13.3083 10.3952 11.8536 9.5253 11.692 8.4613C11.5299 7.39729 11.9181 5.91491 13.9545 6.26895C15.9778 6.62123 16.0544 7.3193 18.4002 7.42752V10.3104ZM0 0.833984L19.1995 33.9938L38.399 0.833984H0Z" fill="#A78BFA"/>
</svg>
