<svg width="39" height="44" viewBox="0 0 39 44" fill="none" xmlns="http://www.w3.org/2000/svg">
<path fill-rule="evenodd" clip-rule="evenodd" d="M18.4002 6.70859V9.95375C17.4506 9.88219 16.4653 9.61882 15.5395 9.09812C13.4932 7.94676 8.77632 7.82208 9.27131 13.5019C9.76686 19.1818 15.9893 18.2175 18.1457 17.8553C18.229 17.8413 18.314 17.8297 18.4002 17.8197V19.7038C18.238 19.6884 18.0702 19.6783 17.8962 19.6746C13.6931 19.5837 13.785 23.4954 14.6334 24.9286C15.1667 25.8296 16.5226 26.5475 18.4002 26.4542V28.3478C16.6806 28.8554 16.0534 30.0175 16.273 31.4315C16.4115 32.3228 17.306 32.9444 18.4002 33.1118V38.1604L2.76884 6.70859H18.4002ZM27.0777 8.45347C27.5304 8.44153 27.5721 9.10608 27.5721 9.10608C27.5721 9.10608 27.5041 9.19097 27.2861 9.17307C27.0674 9.1545 26.6301 8.97344 26.5833 8.89518C26.5364 8.81625 26.625 8.46614 27.0777 8.45347ZM19.9988 33.033C20.7154 32.8511 21.4097 32.4632 21.9508 31.8255C21.8315 31.954 21.1996 32.5764 19.9988 32.7456V29.0161C21.4069 28.5963 22.8437 27.8265 22.9745 24.8915C22.9745 24.8915 27.177 22.4502 25.0109 18.5822C23.886 16.5731 21.9239 15.9925 19.9988 15.888V12.4701C21.7435 12.2262 22.7785 11.4617 23.369 11.1747C24.1169 10.8119 24.7289 11.3962 24.7969 11.57C24.8648 11.7437 25.8999 13.2917 26.2595 13.3554C26.6192 13.4184 27.068 13.2917 26.8236 12.8022C26.7562 12.6676 26.6706 12.519 26.5804 12.3592C26.6603 12.3439 27.3101 12.2299 27.5401 12.4109C27.785 12.6039 27.9272 13.232 28.1727 13.2864C28.4182 13.3408 28.6517 13.1372 28.6517 13.1372C28.6517 13.1372 28.2664 13.3136 28.1379 13.1372C28.0095 12.9607 27.7525 12.2551 27.4368 12.1874C27.1251 12.1198 26.7785 12.2697 26.3635 11.9619C26.1979 11.6376 26.0529 11.2854 26.0152 10.9273C25.9427 10.2375 26.1979 10.1639 26.5787 9.97424C26.5787 9.97424 25.5859 9.75339 25.4089 10.4484C25.2325 11.1435 25.6264 11.8067 25.6264 11.8067C25.6264 11.8067 25.0012 11.2065 24.9875 10.3059C24.9739 9.40586 25.7628 9.46886 26.2247 9.48478C26.6872 9.50004 27.6257 9.68972 27.4762 10.3218C27.3312 10.9339 27.1353 11.3982 27.1233 11.4267C27.1502 11.3869 27.7907 10.4246 27.8707 10.0532C27.8707 10.0532 28.1835 9.86348 28.1561 10.1639C28.1287 10.4637 27.8296 11.2383 27.7616 11.3644C27.7616 11.3644 28.2378 11.0009 28.3874 10.1321C28.3874 10.1321 29.0399 9.6108 28.8498 9.20026C28.8498 9.20026 28.7819 9.02649 28.3874 8.94757C27.9928 8.86865 28.0066 8.78972 27.8296 8.53637C27.6532 8.28375 27.2866 8.01906 26.2595 8.22267C26.2595 8.22267 25.8028 7.75841 25.2319 7.82473C24.661 7.89105 23.1195 8.81957 21.5209 9.48279C21.0656 9.67175 20.5501 9.81494 19.9988 9.89691V6.70859H35.6302L19.9988 38.1604V33.033ZM18.4002 32.6639C16.7032 32.1649 16.7063 30.2582 18.1251 29.5858C18.2125 29.5443 18.3045 29.5067 18.4002 29.4713V32.6639ZM21.7784 25.5295C21.7784 25.5295 21.7014 27.3432 19.9988 27.9813V26.197C20.563 26.0468 21.158 25.8282 21.7784 25.5295ZM18.4002 24.978C16.9797 25.07 15.721 24.425 15.6353 23.3044C15.5396 22.0514 16.3147 21.0334 18.4002 21.2156V24.978ZM21.6922 23.7348C21.6922 23.7348 21.0839 24.2233 19.9988 24.6116V21.7469C21.1527 22.4869 21.6922 23.7348 21.6922 23.7348ZM19.9988 17.8479C22.011 18.1244 24.006 19.271 23.6864 21.0653C23.4495 22.3978 22.6833 22.9005 22.6833 22.9005C22.6833 22.9005 22.1294 20.9566 19.9988 20.0861V17.8479ZM18.4002 15.8916C17.2191 15.9483 16.1551 16.091 15.4418 16.066C13.3083 15.9904 11.8536 14.9769 11.692 13.7374C11.5299 12.4978 11.9181 10.7708 13.9545 11.1833C15.9778 11.5937 16.0544 12.4069 18.4002 12.533V15.8916ZM0 4.85156L19.1995 43.4827L38.399 4.85156H0Z" fill="#89D7E0"/>
</svg>
