<svg width="21" height="21" viewBox="0 0 21 21" fill="none" xmlns="http://www.w3.org/2000/svg">
<path d="M8.28833 19.8295H5.12784C3.86353 19.8295 3.23089 19.8295 2.74799 19.5835C2.32321 19.367 1.97811 19.0216 1.76168 18.5969C1.51562 18.114 1.51562 17.4818 1.51562 16.2175V5.38154C1.51562 4.11722 1.51562 3.48508 1.76168 3.00217C1.97811 2.5774 2.32321 2.23202 2.74799 2.01558C3.23089 1.76953 3.86352 1.76953 5.12784 1.76953H15.9638C17.2281 1.76953 17.8599 1.76953 18.3428 2.01558C18.7675 2.23202 19.1133 2.5774 19.3298 3.00217C19.5758 3.48507 19.5756 4.11722 19.5756 5.38154V8.54203M18.4468 18.7007L15.0606 15.3145M12.2387 16.4433C10.0569 16.4433 8.28811 14.6745 8.28811 12.4926C8.28811 10.3108 10.0569 8.54202 12.2387 8.54202C14.4206 8.54202 16.1893 10.3108 16.1893 12.4926C16.1893 14.6745 14.4206 16.4433 12.2387 16.4433Z" stroke="#9799A5" stroke-width="1.69312" stroke-linecap="round" stroke-linejoin="round"/>
</svg>
