<svg width="24" height="18" viewBox="0 0 24 18" fill="none" xmlns="http://www.w3.org/2000/svg">
<path d="M2.84388 15.0432V16.1702L3.92631 15.8562C6.05662 15.2382 7.76063 14.1646 8.98087 12.6079C10.2008 11.0725 10.8272 9.34993 10.8272 7.46351C10.8272 5.87391 10.3183 4.50194 9.27131 3.41397C8.27654 2.36337 7.09432 1.78039 5.74638 1.78039C4.64884 1.78039 3.67632 2.14071 2.87678 2.8663L2.87673 2.86625L2.86871 2.87372C2.09592 3.59348 1.66906 4.4845 1.66906 5.51445C1.66906 6.43001 2.00411 7.23341 2.65639 7.87469C3.30393 8.5113 4.10436 8.83944 5.01212 8.83944C5.47409 8.83944 5.92929 8.75652 6.37402 8.59753C6.53654 8.53943 6.66251 8.50111 6.75612 8.4781C6.76829 8.47511 6.77945 8.47249 6.78963 8.47021C6.81418 8.5254 6.85785 8.66588 6.85785 8.95538C6.85785 9.77385 6.64261 10.4695 6.22524 11.0721L6.22523 11.0721L6.22294 11.0755C5.83651 11.6392 4.91291 12.3862 3.27973 13.2923L2.84388 13.5341V14.0326V15.0432ZM14.5187 15.0432V16.2028L15.6232 15.8495C17.8027 15.1522 19.5276 14.0505 20.7314 12.5087C21.928 10.9809 22.5509 9.30083 22.5509 7.48757C22.5509 5.92402 22.0384 4.56515 20.9999 3.46723C19.9881 2.38147 18.7795 1.78039 17.3967 1.78039C16.3178 1.78039 15.3647 2.13149 14.5929 2.84922C13.8306 3.55815 13.4173 4.44314 13.4173 5.46632C13.4173 6.3812 13.7514 7.18722 14.3948 7.84081L14.3947 7.84089L14.4046 7.85062C15.0582 8.49318 15.8549 8.83944 16.7603 8.83944C17.1615 8.83944 17.5844 8.74804 18.0132 8.6014L18.0133 8.60148L18.0243 8.59753C18.226 8.52544 18.3705 8.48793 18.4674 8.46971C18.474 8.49118 18.4815 8.51952 18.4891 8.55596C18.5145 8.67848 18.5326 8.85585 18.5326 9.09975C18.5326 9.83978 18.2889 10.5423 17.7564 11.2269L17.7549 11.2289C17.2428 11.8912 16.3465 12.5838 14.9815 13.278L14.5187 13.5133V14.0326V15.0432Z" stroke="#9799A5" stroke-width="1.69312"/>
</svg>
