<svg width="15" height="14" viewBox="0 0 15 14" fill="none" xmlns="http://www.w3.org/2000/svg">
<path fill-rule="evenodd" clip-rule="evenodd" d="M7.24117 1.451V2.519C6.89109 2.49545 6.52785 2.40877 6.18653 2.23741C5.43217 1.85849 3.69323 1.81746 3.87571 3.68673C4.05841 5.556 6.35236 5.23863 7.14732 5.11946C7.17805 5.11485 7.20939 5.11101 7.24117 5.10774V5.7278C7.18136 5.72274 7.11952 5.71942 7.05534 5.7182C5.50583 5.68827 5.53972 6.97563 5.85249 7.44731C6.04909 7.74384 6.54897 7.98009 7.24117 7.94938V8.57259C6.6072 8.73963 6.376 9.12208 6.45697 9.58746C6.50801 9.88077 6.83776 10.0853 7.24117 10.1404V11.802L1.47852 1.451H7.24117ZM10.4402 2.02525C10.6071 2.02132 10.6225 2.24003 10.6225 2.24003C10.6225 2.24003 10.5974 2.26797 10.517 2.26207C10.4364 2.25596 10.2752 2.19637 10.2579 2.17062C10.2407 2.14464 10.2733 2.02942 10.4402 2.02525ZM7.8305 10.1145C8.09469 10.0546 8.35064 9.92698 8.55013 9.71711C8.50614 9.75939 8.27319 9.96424 7.8305 10.0199V8.79254C8.34961 8.65437 8.87929 8.40103 8.92751 7.43509C8.92751 7.43509 10.4768 6.63164 9.67827 5.35868C9.26355 4.69745 8.54022 4.5064 7.8305 4.472V3.34714C8.47369 3.26686 8.85526 3.01526 9.07295 2.92082C9.34867 2.80142 9.5743 2.99372 9.59934 3.0509C9.62439 3.10809 10.006 3.61754 10.1386 3.63849C10.2712 3.65923 10.4366 3.61754 10.3465 3.45645C10.3217 3.41214 10.2901 3.36325 10.2569 3.31065C10.2863 3.30563 10.5259 3.26811 10.6107 3.32767C10.701 3.39119 10.7534 3.59789 10.8439 3.61579C10.9344 3.63371 11.0205 3.56668 11.0205 3.56668C11.0205 3.56668 10.8784 3.62474 10.8311 3.56668C10.7837 3.50862 10.689 3.27638 10.5726 3.25412C10.4577 3.23185 10.3299 3.28118 10.1769 3.1799C10.1158 3.07317 10.0624 2.95727 10.0485 2.8394C10.0218 2.6124 10.1158 2.58817 10.2562 2.52575C10.2562 2.52575 9.89022 2.45306 9.82497 2.68181C9.75994 2.91056 9.90516 3.12883 9.90516 3.12883C9.90516 3.12883 9.67469 2.93129 9.66964 2.63488C9.66461 2.33869 9.95547 2.35942 10.1257 2.36466C10.2962 2.36968 10.6422 2.43211 10.5871 2.64012C10.5336 2.84158 10.4614 2.99437 10.457 3.00376C10.4669 2.99066 10.7031 2.67395 10.7325 2.55172C10.7325 2.55172 10.8479 2.48929 10.8378 2.58817C10.8277 2.68683 10.7174 2.94177 10.6923 2.98324C10.6923 2.98324 10.8679 2.86363 10.923 2.57769C10.923 2.57769 11.1636 2.40613 11.0935 2.27102C11.0935 2.27102 11.0685 2.21384 10.923 2.18786C10.7776 2.16189 10.7826 2.13591 10.7174 2.05253C10.6523 1.96939 10.5172 1.88228 10.1386 1.94929C10.1386 1.94929 9.9702 1.7965 9.75972 1.81833C9.54925 1.84016 8.98097 2.14574 8.39164 2.36401C8.22377 2.42619 8.03375 2.47332 7.8305 2.50029V1.451H13.5932L7.8305 11.802V10.1145ZM7.24117 9.99303C6.61556 9.82882 6.6167 9.20129 7.13974 8.98001C7.17195 8.96637 7.2059 8.95397 7.24117 8.94232V9.99303ZM8.48657 7.64507C8.48657 7.64507 8.4582 8.24197 7.8305 8.45195V7.86474C8.03849 7.8153 8.25785 7.74338 8.48657 7.64507ZM7.24117 7.46355C6.71747 7.49385 6.25344 7.28156 6.22187 6.91277C6.18657 6.50039 6.47231 6.16537 7.24117 6.22535V7.46355ZM8.45479 7.05443C8.45479 7.05443 8.23055 7.21518 7.8305 7.34298V6.40018C8.25589 6.64373 8.45479 7.05443 8.45479 7.05443ZM7.8305 5.11701C8.57232 5.20801 9.30777 5.58536 9.18997 6.17589C9.10263 6.61439 8.82017 6.77984 8.82017 6.77984C8.82017 6.77984 8.61595 6.14011 7.8305 5.85361V5.11701ZM7.24117 4.47318C6.80574 4.49184 6.41348 4.53881 6.15052 4.53056C5.364 4.50568 4.82769 4.17216 4.76812 3.76421C4.70835 3.35627 4.85147 2.78791 5.60223 2.92365C6.34811 3.05872 6.37636 3.32636 7.24117 3.36786V4.47318ZM0.457764 0.839844L7.53584 13.5536L14.6139 0.839844H0.457764Z" fill="url(#paint0_linear_1450_2334)"/>
<defs>
<linearGradient id="paint0_linear_1450_2334" x1="7.53584" y1="0.839844" x2="7.80889" y2="23.1482" gradientUnits="userSpaceOnUse">
<stop stop-color="#323232"/>
<stop offset="0.557646" stop-color="#323232"/>
</linearGradient>
</defs>
</svg>
