<svg width="14.786621" height="13.280273" viewBox="0 0 14.7866 13.2803" fill="none" xmlns="http://www.w3.org/2000/svg" xmlns:xlink="http://www.w3.org/1999/xlink">
	<desc>
			Created with Pixso.
	</desc>
	<defs>
		<linearGradient id="paint_linear_14_2784_0" x1="7.393315" y1="0.000000" x2="7.678574" y2="23.301912" gradientUnits="userSpaceOnUse">
			<stop stop-color="#323232"/>
			<stop offset="0.557646" stop-color="#323232"/>
		</linearGradient>
	</defs>
	<path id="Fill-1" d="M7.08545 0.638672L7.08545 1.75391C6.71973 1.72949 6.34033 1.63867 5.98389 1.45996C5.1958 1.06445 3.37939 1.02148 3.57031 2.97363C3.76123 4.92578 6.15723 4.59473 6.9873 4.4707C7.01953 4.46582 7.05225 4.46094 7.08545 4.45801L7.08545 5.10547C7.02295 5.10059 6.9585 5.09668 6.8916 5.0957C5.27295 5.06445 5.30811 6.40918 5.63477 6.90137C5.84033 7.21191 6.3623 7.45801 7.08545 7.42578L7.08545 8.07715C6.42334 8.25195 6.18164 8.65137 6.2666 9.1377C6.31982 9.44336 6.66406 9.65723 7.08545 9.71484L7.08545 11.4502L1.06641 0.638672L7.08545 0.638672ZM10.4272 1.23828C10.6016 1.23438 10.6172 1.46289 10.6172 1.46289C10.6172 1.46289 10.5913 1.49219 10.5073 1.48535C10.4229 1.47949 10.2549 1.41699 10.2368 1.38965C10.2188 1.36328 10.2529 1.24219 10.4272 1.23828ZM7.70117 9.6875C7.97705 9.625 8.24463 9.49219 8.45264 9.27246C8.40674 9.31641 8.16357 9.53125 7.70117 9.58887L7.70117 8.30664C8.24316 8.16211 8.79639 7.89746 8.84717 6.88867C8.84717 6.88867 10.4653 6.0498 9.63135 4.71973C9.19775 4.0293 8.44238 3.83008 7.70117 3.79395L7.70117 2.61914C8.37305 2.53516 8.77148 2.27246 8.99902 2.17383C9.28711 2.04883 9.52246 2.25 9.54883 2.30957C9.57471 2.36914 9.97363 2.90137 10.1118 2.92285C10.2505 2.94531 10.4233 2.90137 10.3291 2.7334C10.3032 2.68652 10.2705 2.63574 10.2354 2.58105C10.2661 2.5752 10.5166 2.53613 10.605 2.59863C10.6992 2.66504 10.7544 2.88086 10.8486 2.89941C10.9434 2.91797 11.0332 2.84863 11.0332 2.84863C11.0332 2.84863 10.8848 2.90918 10.8354 2.84863C10.7856 2.78809 10.687 2.54492 10.5654 2.52148C10.4453 2.49902 10.312 2.5498 10.1519 2.44434C10.0884 2.33301 10.0322 2.21191 10.0181 2.08887C9.98975 1.85156 10.0884 1.82617 10.2349 1.76074C10.2349 1.76074 9.85254 1.68555 9.78418 1.92383C9.71631 2.16309 9.86816 2.39062 9.86816 2.39062C9.86816 2.39062 9.62744 2.18457 9.62207 1.875C9.6167 1.56543 9.9209 1.58691 10.0986 1.59277C10.2769 1.59766 10.6382 1.66309 10.5806 1.88086C10.5244 2.09082 10.4492 2.25098 10.4448 2.26074C10.4551 2.24707 10.7017 1.91602 10.7324 1.78809C10.7324 1.78809 10.853 1.72266 10.8423 1.82617C10.8315 1.92969 10.7168 2.19531 10.6904 2.23926C10.6904 2.23926 10.874 2.11426 10.9312 1.81543C10.9312 1.81543 11.1826 1.63574 11.1094 1.49512C11.1094 1.49512 11.0835 1.43555 10.9312 1.4082C10.7793 1.38086 10.7847 1.35352 10.7168 1.2666C10.6484 1.17969 10.5073 1.08887 10.1118 1.15918C10.1118 1.15918 9.93604 0.999023 9.71631 1.02246C9.49658 1.04492 8.90283 1.36426 8.28711 1.5918C8.11182 1.65723 7.91357 1.70605 7.70117 1.73438L7.70117 0.638672L13.7202 0.638672L7.70117 11.4502L7.70117 9.6875ZM7.08545 9.56055C6.43213 9.38965 6.43311 8.7334 6.97949 8.50293C7.01318 8.48828 7.04883 8.47559 7.08545 8.46289L7.08545 9.56055ZM8.38623 7.1084C8.38623 7.1084 8.35693 7.73145 7.70117 7.95117L7.70117 7.33789C7.91846 7.28613 8.14746 7.21094 8.38623 7.1084ZM7.08545 6.91895C6.53857 6.9502 6.05371 6.72852 6.021 6.34375C5.98389 5.91309 6.28223 5.5625 7.08545 5.625L7.08545 6.91895ZM8.35303 6.49121C8.35303 6.49121 8.11914 6.65918 7.70117 6.79297L7.70117 5.80762C8.14551 6.0625 8.35303 6.49121 8.35303 6.49121ZM7.70117 4.46777C8.47607 4.5625 9.24414 4.95703 9.12109 5.57324C9.02979 6.03223 8.73486 6.2041 8.73486 6.2041C8.73486 6.2041 8.52148 5.53613 7.70117 5.2373L7.70117 4.46777ZM7.08545 3.79492C6.63086 3.81445 6.22119 3.86328 5.94629 3.85547C5.12451 3.8291 4.56445 3.48047 4.50244 3.05469C4.43994 2.62891 4.58936 2.03516 5.37354 2.17676C6.15283 2.31738 6.18213 2.59766 7.08545 2.64062L7.08545 3.79492ZM0 0L7.39355 13.2803L14.7866 0L0 0Z" fill="url(#paint_linear_14_2784_0)" fill-opacity="1.000000" fill-rule="evenodd"/>
</svg>
