<svg width="44" height="40" viewBox="0 0 44 40" fill="none" xmlns="http://www.w3.org/2000/svg">
<path fill-rule="evenodd" clip-rule="evenodd" d="M21.2044 2.35073V5.61047C20.1359 5.53859 19.0272 5.27404 17.9854 4.751C15.683 3.59447 10.3754 3.46922 10.9323 9.1746C11.4899 14.88 18.4916 13.9113 20.918 13.5476C21.0118 13.5335 21.1074 13.5218 21.2044 13.5118V15.4044C21.0219 15.3889 20.8331 15.3788 20.6372 15.375C15.9078 15.2837 16.0112 19.213 16.9659 20.6527C17.5659 21.5577 19.0917 22.2788 21.2044 22.1851V24.0872C19.2694 24.5971 18.5637 25.7644 18.8109 27.1848C18.9667 28.08 19.9731 28.7044 21.2044 28.8726V33.9439L3.61557 2.35073H21.2044ZM30.9685 4.10345C31.478 4.09145 31.5249 4.75899 31.5249 4.75899C31.5249 4.75899 31.4484 4.84427 31.2031 4.82628C30.957 4.80763 30.4649 4.62575 30.4122 4.54714C30.3595 4.46786 30.4592 4.11617 30.9685 4.10345ZM23.0032 28.7934C23.8095 28.6107 24.5908 28.2211 25.1997 27.5805C25.0654 27.7096 24.3544 28.3348 23.0032 28.5048V24.7585C24.5876 24.3368 26.2043 23.5636 26.3515 20.6154C26.3515 20.6154 31.0803 18.163 28.643 14.2777C27.3772 12.2595 25.1694 11.6764 23.0032 11.5714V8.13812C24.9663 7.89309 26.131 7.12515 26.7954 6.83689C27.637 6.47247 28.3256 7.0594 28.4021 7.23395C28.4785 7.40849 29.6432 8.96342 30.0479 9.02737C30.4527 9.09066 30.9576 8.96342 30.6827 8.47176C30.6068 8.33652 30.5105 8.18729 30.409 8.02673C30.4989 8.01141 31.23 7.89689 31.4889 8.07869C31.7645 8.27256 31.9244 8.90346 32.2007 8.95809C32.4769 9.01278 32.7397 8.80819 32.7397 8.80819C32.7397 8.80819 32.3061 8.9854 32.1615 8.80819C32.017 8.63098 31.7279 7.92214 31.3726 7.85418C31.0218 7.78623 30.6319 7.93679 30.1649 7.62767C29.9786 7.3019 29.8154 6.94814 29.773 6.58839C29.6914 5.89554 29.9786 5.82159 30.4071 5.63106C30.4071 5.63106 29.2899 5.40921 29.0908 6.10739C28.8922 6.80558 29.3355 7.47178 29.3355 7.47178C29.3355 7.47178 28.6321 6.86887 28.6167 5.96416C28.6013 5.06012 29.489 5.12341 30.0088 5.1394C30.5291 5.15472 31.5852 5.34525 31.4169 5.98015C31.2538 6.59506 31.0334 7.0614 31.0199 7.09005C31.0501 7.05007 31.7709 6.08341 31.8608 5.71033C31.8608 5.71033 32.2129 5.5198 32.182 5.82159C32.1512 6.12272 31.8146 6.90084 31.7381 7.02742C31.7381 7.02742 32.274 6.66234 32.4422 5.78961C32.4422 5.78961 33.1765 5.26598 32.9626 4.85359C32.9626 4.85359 32.8861 4.67905 32.4422 4.59977C31.9983 4.52049 32.0137 4.44121 31.8146 4.18672C31.6161 3.93296 31.2036 3.66708 30.0479 3.87161C30.0479 3.87161 29.534 3.40526 28.8916 3.47188C28.2492 3.5385 26.5147 4.47119 24.7159 5.1374C24.2035 5.3272 23.6236 5.47103 23.0032 5.55338V2.35073H40.5921L23.0032 33.9439V28.7934ZM21.2044 28.4227C19.2949 27.9215 19.2984 26.0062 20.8949 25.3308C20.9931 25.2891 21.0968 25.2513 21.2044 25.2157V28.4227ZM25.0057 21.2562C25.0057 21.2562 24.9191 23.0781 23.0032 23.719V21.9267C23.638 21.7758 24.3075 21.5563 25.0057 21.2562ZM21.2044 20.7022C19.606 20.7947 18.1897 20.1467 18.0933 19.0211C17.9856 17.7625 18.8577 16.7399 21.2044 16.923V20.7022ZM24.9086 19.4535C24.9086 19.4535 24.2242 19.9441 23.0032 20.3342V17.4566C24.3016 18.2 24.9086 19.4535 24.9086 19.4535ZM23.0032 13.5401C25.2674 13.8179 27.5122 14.9696 27.1526 16.772C26.886 18.1104 26.0239 18.6154 26.0239 18.6154C26.0239 18.6154 25.4005 16.6628 23.0032 15.7884V13.5401ZM21.2044 11.575C19.8754 11.632 18.6781 11.7753 17.8755 11.7502C15.4749 11.6742 13.838 10.6562 13.6562 9.41111C13.4737 8.16597 13.9106 6.43124 16.202 6.84555C18.4786 7.2578 18.5648 8.0747 21.2044 8.20134V11.575ZM0.5 0.485352L22.1038 39.2902L43.7076 0.485352H0.5Z" fill="white"/>
</svg>
