<svg width="15" height="14" viewBox="0 0 15 14" fill="none" xmlns="http://www.w3.org/2000/svg">
    <path fill-rule="evenodd" clip-rule="evenodd" d="M7.13924 1.05732V2.17289C6.77357 2.14829 6.39416 2.05775 6.03763 1.87876C5.24967 1.48296 3.43328 1.4401 3.62389 3.39263C3.81472 5.34515 6.21085 5.01365 7.04121 4.88917C7.07331 4.88436 7.10605 4.88034 7.13924 4.87692V5.5246C7.07676 5.51931 7.01217 5.51585 6.94514 5.51457C5.32662 5.48331 5.36201 6.82801 5.68871 7.3207C5.89407 7.63043 6.41621 7.87721 7.13924 7.84513V8.4961C6.47704 8.67058 6.23554 9.07007 6.32011 9.55617C6.37342 9.86254 6.71786 10.0762 7.13924 10.1338V11.8693L1.11993 1.05732H7.13924ZM10.4807 1.65715C10.6551 1.65304 10.6711 1.88149 10.6711 1.88149C10.6711 1.88149 10.645 1.91068 10.561 1.90452C10.4768 1.89814 10.3084 1.83589 10.2904 1.80899C10.2723 1.78186 10.3064 1.6615 10.4807 1.65715ZM7.75482 10.1067C8.03077 10.0442 8.29813 9.91081 8.5065 9.6916C8.46055 9.73576 8.21723 9.94973 7.75482 10.0079V8.72584C8.29705 8.58152 8.85032 8.31689 8.90069 7.30794C8.90069 7.30794 10.519 6.4687 9.68489 5.13905C9.2517 4.44837 8.49615 4.2488 7.75482 4.21287V3.03792C8.42665 2.95406 8.82522 2.69125 9.05261 2.5926C9.34061 2.46789 9.57628 2.66875 9.60245 2.72848C9.62861 2.78822 10.0272 3.32035 10.1657 3.34224C10.3042 3.3639 10.477 3.32035 10.3829 3.15209C10.357 3.10581 10.324 3.05474 10.2893 2.9998C10.32 2.99455 10.5702 2.95536 10.6588 3.01758C10.7531 3.08392 10.8079 3.29983 10.9024 3.31853C10.9969 3.33725 11.0869 3.26723 11.0869 3.26723C11.0869 3.26723 10.9385 3.32788 10.889 3.26723C10.8396 3.20658 10.7406 2.964 10.619 2.94075C10.499 2.91749 10.3655 2.96902 10.2057 2.86323C10.142 2.75174 10.0861 2.63068 10.0716 2.50756C10.0437 2.27045 10.142 2.24514 10.2886 2.17993C10.2886 2.17993 9.90628 2.10401 9.83812 2.34295C9.77019 2.58189 9.92189 2.80988 9.92189 2.80988C9.92189 2.80988 9.68115 2.60354 9.67588 2.29393C9.67062 1.98455 9.97443 2.0062 10.1523 2.01168C10.3304 2.01692 10.6918 2.08213 10.6342 2.2994C10.5784 2.50984 10.5029 2.66943 10.4983 2.67924C10.5087 2.66556 10.7553 2.33474 10.7861 2.20707C10.7861 2.20707 10.9066 2.14186 10.896 2.24514C10.8855 2.34819 10.7703 2.61449 10.7441 2.65781C10.7441 2.65781 10.9275 2.53287 10.9851 2.2342C10.9851 2.2342 11.2364 2.05499 11.1631 1.91387C11.1631 1.91387 11.137 1.85413 10.9851 1.827C10.8332 1.79987 10.8384 1.77274 10.7703 1.68565C10.7023 1.59881 10.5612 1.50781 10.1657 1.57781C10.1657 1.57781 9.98982 1.41821 9.76997 1.44101C9.55012 1.46381 8.95653 1.783 8.34096 2.01099C8.16561 2.07595 7.96713 2.12517 7.75482 2.15335V1.05732H13.7741L7.75482 11.8693V10.1067ZM7.13924 9.9798C6.48577 9.80828 6.48695 9.1528 7.0333 8.92167C7.06694 8.90742 7.1024 8.89447 7.13924 8.88229V9.9798ZM8.44011 7.52727C8.44011 7.52727 8.41047 8.15076 7.75482 8.37008V7.75672C7.97207 7.70508 8.2012 7.62995 8.44011 7.52727ZM7.13924 7.33767C6.59222 7.36931 6.10752 7.14757 6.07454 6.76235C6.03767 6.33161 6.33614 5.98166 7.13924 6.04431V7.33767ZM8.40691 6.91032C8.40691 6.91032 8.17268 7.07823 7.75482 7.21172V6.22693C8.19915 6.48133 8.40691 6.91032 8.40691 6.91032ZM7.75482 4.88661C8.52967 4.98166 9.29789 5.37582 9.17484 5.99265C9.0836 6.45069 8.78857 6.6235 8.78857 6.6235C8.78857 6.6235 8.57525 5.95528 7.75482 5.65602V4.88661ZM7.13924 4.2141C6.68442 4.2336 6.27469 4.28266 6.00001 4.27404C5.17846 4.24805 4.61827 3.89968 4.55605 3.47356C4.49361 3.04745 4.64311 2.45378 5.42731 2.59556C6.20641 2.73665 6.23591 3.01621 7.13924 3.05955V4.2141Z" fill="url(#paint0_linear_609_5818)"/>
    <defs>
        <linearGradient id="paint0_linear_609_5818" x1="7.44703" y1="0.418945" x2="7.73225" y2="23.7209" gradientUnits="userSpaceOnUse">
            <stop stop-color="#323232"/>
            <stop offset="0.557646" stop-color="#323232"/>
        </linearGradient>
    </defs>
</svg>
