<svg width="23" height="24" viewBox="0 0 23 24" fill="none" xmlns="http://www.w3.org/2000/svg">
<path d="M5.26829 6.89707C5.40732 7.34136 5.7993 7.65185 6.2703 7.65185C9.38227 7.65185 12.5156 7.65195 15.6702 7.65216C16.1571 7.65216 16.5663 7.3331 16.6915 6.8689C16.7166 6.77601 16.729 6.5878 16.7286 6.30426C16.7257 4.29967 16.7251 2.31549 16.7267 0.351718C16.7267 0.340899 16.7322 0.335489 16.743 0.335489L18.8003 0.334877C18.8097 0.334881 18.8187 0.338626 18.8254 0.345288L22.9887 4.50717C22.9954 4.51411 22.9988 4.52238 22.9988 4.53197C22.9967 10.0501 22.9971 15.5192 23 20.9391C23 21.221 22.9912 21.4231 22.9737 21.5454C22.8438 22.4508 22.1242 23.1729 21.2134 23.3039C21.0772 23.3235 20.8834 23.3332 20.6319 23.333C14.6411 23.3283 8.52471 23.3279 2.28279 23.3318C2.03147 23.332 1.8367 23.3185 1.69849 23.2914C0.837353 23.1229 0.169451 22.4426 0.029807 21.5837C0.0100037 21.4622 0.000102001 21.3308 0.000102001 21.1893C-0.000102156 14.9489 2.21576e-07 8.69416 0.000408537 2.425C0.000408537 1.42709 0.706284 0.575245 1.68103 0.377439C1.83068 0.347023 2.02769 0.332223 2.27207 0.33304C3.2457 0.336306 4.22433 0.336612 5.20796 0.333958C5.22042 0.333958 5.22664 0.340083 5.22664 0.352331C5.22827 2.4349 5.22807 4.49186 5.22603 6.52319C5.22583 6.68201 5.23991 6.80663 5.26829 6.89707ZM5.93374 12.9059C5.07444 13.0428 4.34101 13.7428 4.20902 14.6317C4.1884 14.7701 4.17829 14.9525 4.1787 15.1789C4.18197 17.2392 4.18268 19.2546 4.18084 21.2251C4.18084 21.229 4.18239 21.2328 4.18515 21.2355C4.18791 21.2383 4.19165 21.2398 4.19554 21.2398H18.8039C18.8123 21.2398 18.8165 21.2356 18.8165 21.2273C18.8167 19.1075 18.8169 17.0367 18.8171 15.0148C18.8171 14.4689 18.649 14.0008 18.3127 13.6105C17.9755 13.2188 17.5531 12.9833 17.0455 12.9041C16.933 12.8866 16.7302 12.8778 16.437 12.8778C13.1423 12.8784 9.84765 12.8784 6.55295 12.8778C6.25774 12.8778 6.05134 12.8872 5.93374 12.9059Z" fill="#323232"/>
<path d="M14.6221 0.334961H12.5587C12.5511 0.334961 12.5449 0.34113 12.5449 0.34874V5.54803C12.5449 5.55564 12.5511 5.56181 12.5587 5.56181H14.6221C14.6297 5.56181 14.6359 5.55564 14.6359 5.54803V0.34874C14.6359 0.34113 14.6297 0.334961 14.6221 0.334961Z" fill="#323232"/>
</svg>
