<svg width="13" height="13" viewBox="0 0 13 13" fill="none" xmlns="http://www.w3.org/2000/svg">
<path d="M2.97773 3.71012C3.05631 3.96124 3.27787 4.13674 3.54408 4.13674C5.30302 4.13674 7.07403 4.1368 8.85709 4.13691C9.1323 4.13691 9.36355 3.95657 9.43434 3.6942C9.44853 3.6417 9.45552 3.53532 9.45529 3.37506C9.45367 2.24202 9.45332 1.12053 9.45425 0.0105754C9.45425 0.00446024 9.4573 0.00140269 9.46342 0.00140269L10.6262 0.00105648C10.6316 0.00105872 10.6367 0.00317528 10.6404 0.00694079L12.9936 2.35931C12.9974 2.36323 12.9993 2.3679 12.9993 2.37333C12.9982 5.49228 12.9984 8.58348 13 11.6469C13 11.8063 12.995 11.9205 12.9851 11.9896C12.9117 12.5014 12.505 12.9095 11.9902 12.9836C11.9132 12.9946 11.8037 13.0001 11.6615 13C8.27539 12.9973 4.81831 12.9971 1.29027 12.9993C1.14822 12.9994 1.03814 12.9918 0.960016 12.9765C0.473286 12.8813 0.0957766 12.4967 0.0168474 12.0112C0.00565426 11.9426 5.76529e-05 11.8683 5.76529e-05 11.7883C-5.77405e-05 8.26117 1.25238e-07 4.72587 0.000230912 1.18243C0.000230912 0.618397 0.399204 0.136916 0.95015 0.0251132C1.03473 0.00792158 1.14609 -0.000443421 1.28421 1.80989e-05C1.83453 0.00186418 2.38766 0.00203723 2.94363 0.000537288C2.95067 0.000537288 2.95419 0.00399879 2.95419 0.0109216C2.95511 1.18803 2.955 2.35066 2.95384 3.4988C2.95373 3.58857 2.96169 3.65901 2.97773 3.71012ZM3.35385 7.10644C2.86816 7.18381 2.45361 7.57944 2.37901 8.08187C2.36736 8.1601 2.36164 8.26319 2.36187 8.39114C2.36372 9.55567 2.36412 10.6948 2.36309 11.8086C2.36309 11.8108 2.36396 11.8129 2.36552 11.8145C2.36708 11.816 2.36919 11.8169 2.37139 11.8169H10.6283C10.633 11.8169 10.6354 11.8145 10.6354 11.8098C10.6355 10.6117 10.6356 9.44122 10.6358 8.29838C10.6358 7.98985 10.5407 7.72529 10.3507 7.50468C10.1601 7.28327 9.9213 7.15017 9.63443 7.10541C9.57085 7.09548 9.45621 7.09052 9.2905 7.09052C7.42828 7.09087 5.56606 7.09087 3.70384 7.09052C3.53698 7.09052 3.42032 7.09583 3.35385 7.10644Z" fill="#323232" fill-opacity="0.4"/>
<path d="M8.26392 0.00195312H7.09763C7.09333 0.00195312 7.08984 0.00544021 7.08984 0.00974149V2.94847C7.08984 2.95277 7.09333 2.95626 7.09763 2.95626H8.26392C8.26822 2.95626 8.2717 2.95277 8.2717 2.94847V0.00974149C8.2717 0.00544021 8.26822 0.00195312 8.26392 0.00195312Z" fill="#323232" fill-opacity="0.4"/>
</svg>
