<svg width="31" height="24" viewBox="0 0 31 24" fill="none" xmlns="http://www.w3.org/2000/svg">
<path fill-rule="evenodd" clip-rule="evenodd" d="M0 11.7515C0 11.7515 5.70925 0.333008 15.2247 0.333008C24.7401 0.333008 30.4493 11.7515 30.4493 11.7515C30.4493 11.7515 24.7401 23.17 15.2247 23.17C5.70925 23.17 0 11.7515 0 11.7515ZM3.44458 11.9989C3.39337 11.9167 3.34262 11.8343 3.29234 11.7515L3.44839 11.5041C4.06879 10.5335 4.98227 9.24515 6.15077 7.97199C8.55246 5.34763 11.6469 3.18763 15.2247 3.18763C18.7987 3.18763 21.8969 5.34763 24.3024 7.97199C25.3666 9.14264 26.3221 10.4077 27.157 11.7515C26.3182 13.0936 25.3616 14.3585 24.2986 15.531C21.8969 18.1554 18.8025 20.3154 15.2247 20.3154C11.6507 20.3154 8.55246 18.1554 6.14696 15.531C5.14723 14.4328 4.24315 13.2511 3.44458 11.9989ZM20.9339 11.7515C20.9336 12.9534 20.5539 14.1244 19.8491 15.0979C19.1443 16.0714 18.1503 16.7977 17.0086 17.1732C15.8669 17.5487 14.6359 17.5544 13.4908 17.1894C12.3457 16.8244 11.345 16.1074 10.6313 15.1404C9.91751 14.1735 9.52711 13.0059 9.51568 11.8041C9.50424 10.6023 9.87236 9.42759 10.5676 8.44723C11.2628 7.46687 12.2497 6.73091 13.3876 6.34419C14.5255 5.95747 15.7565 5.93972 16.9051 6.29347C16.4845 6.4838 16.1163 6.7733 15.8322 7.13714C15.548 7.50099 15.3563 7.92833 15.2736 8.38251C15.1908 8.83669 15.9259 10.472 16.0635 10.9127C15.737 10.5863 16.201 11.3534 16.0635 10.9127C16.3899 11.2392 16.7906 11.4816 17.2313 11.6191C17.672 11.7567 18.1395 11.7853 18.5937 11.7026C19.0479 11.6198 19.4752 11.4282 19.839 11.144C20.2029 10.8599 20.4924 10.4917 20.6827 10.0711C20.8498 10.6156 20.9345 11.182 20.9339 11.7515Z" fill="#323232"/>
</svg>
