<svg width="32" height="33" viewBox="0 0 32 33" fill="none" xmlns="http://www.w3.org/2000/svg">
<g clip-path="url(#clip0_196_5375)">
<path d="M16.002 28.666V31.3327" stroke="#556583" stroke-width="2" stroke-linecap="round" stroke-linejoin="round"/>
<path d="M24.4805 25.1445L26.3738 27.0379" stroke="#556583" stroke-width="2" stroke-linecap="round" stroke-linejoin="round"/>
<path d="M5.62891 27.0379L7.52224 25.1445" stroke="#556583" stroke-width="2" stroke-linecap="round" stroke-linejoin="round"/>
<path d="M28.002 16.666H30.6686" stroke="#556583" stroke-width="2" stroke-linecap="round" stroke-linejoin="round"/>
<path d="M1.33594 16.666H4.0026" stroke="#556583" stroke-width="2" stroke-linecap="round" stroke-linejoin="round"/>
<path d="M16.0026 23.3333C19.6845 23.3333 22.6693 20.3486 22.6693 16.6667C22.6693 12.9848 19.6845 10 16.0026 10C12.3207 10 9.33594 12.9848 9.33594 16.6667C9.33594 20.3486 12.3207 23.3333 16.0026 23.3333Z" stroke="#556583" stroke-width="2" stroke-linecap="round" stroke-linejoin="round"/>
<path d="M24.4805 8.1863L26.3738 6.29297" stroke="#556583" stroke-width="2" stroke-linecap="round" stroke-linejoin="round"/>
<path d="M5.62891 6.29297L7.52224 8.1863" stroke="#556583" stroke-width="2" stroke-linecap="round" stroke-linejoin="round"/>
<path d="M16.002 2V4.66667" stroke="#556583" stroke-width="2" stroke-linecap="round" stroke-linejoin="round"/>
</g>
<defs>
<clipPath id="clip0_196_5375">
<rect width="32" height="32" fill="white" transform="translate(0.00195312 0.666016)"/>
</clipPath>
</defs>
</svg>
