<svg width="41" height="41" viewBox="0 0 41 41" fill="none" xmlns="http://www.w3.org/2000/svg">
<path d="M20.4903 3.41602C17.1116 3.41602 13.8087 4.41794 10.9993 6.29508C8.18999 8.17222 6.00038 10.8403 4.70738 13.9618C3.41438 17.0834 3.07608 20.5183 3.73524 23.8321C4.39441 27.146 6.02144 30.1899 8.41058 32.5791C10.7997 34.9682 13.8437 36.5953 17.1575 37.2544C20.4714 37.9136 23.9063 37.5753 27.0278 36.2823C30.1494 34.9893 32.8175 32.7997 34.6946 29.9903C36.5717 27.181 37.5737 23.8781 37.5737 20.4993C37.5738 18.2559 37.1321 16.0343 36.2736 13.9616C35.4152 11.8889 34.1568 10.0056 32.5705 8.41919C30.9841 6.83282 29.1008 5.57448 27.0281 4.71603C24.9553 3.85758 22.7338 3.41583 20.4903 3.41602V3.41602ZM25.922 29.3015C25.858 29.4609 25.7608 29.6048 25.6366 29.7236C25.5125 29.8424 25.3645 29.9332 25.2024 29.9901C25.0403 30.047 24.8679 30.0685 24.6968 30.0533C24.5257 30.0381 24.3598 29.9865 24.2102 29.902L19.5727 26.2984L16.5962 29.0444C16.5271 29.0955 16.4464 29.1283 16.3613 29.1399C16.2762 29.1515 16.1896 29.1416 16.1093 29.111L16.6799 24.0057L16.6982 24.0202L16.7098 23.9194C16.7098 23.9194 25.0551 16.3215 25.395 15.9978C25.7392 15.6749 25.6256 15.6049 25.6256 15.6049C25.6452 15.2111 25.008 15.6049 25.008 15.6049L13.9508 22.7185L9.34603 21.1502C9.34603 21.1502 8.63878 20.8965 8.57215 20.3388C8.50211 19.7853 9.36907 19.4846 9.36907 19.4846L27.6773 12.2114C27.6773 12.2114 29.1823 11.5408 29.1823 12.6513L25.922 29.3015Z" fill="white" fill-opacity="0.9"/>
</svg>
