<svg width="33" height="24" viewBox="0 0 33 24" fill="none" xmlns="http://www.w3.org/2000/svg">
<path d="M20.2908 12.0003L23.8308 15.5403C24.017 15.7277 24.1216 15.9811 24.1216 16.2453C24.1216 16.5095 24.017 16.7629 23.8308 16.9503C23.7378 17.044 23.6272 17.1184 23.5054 17.1692C23.3835 17.22 23.2528 17.2461 23.1208 17.2461C22.9888 17.2461 22.8581 17.22 22.7362 17.1692C22.6144 17.1184 22.5038 17.044 22.4108 16.9503L18.1708 12.7103C18.0771 12.6173 18.0027 12.5067 17.9519 12.3849C17.9011 12.263 17.875 12.1323 17.875 12.0003C17.875 11.8683 17.9011 11.7376 17.9519 11.6157C18.0027 11.4939 18.0771 11.3833 18.1708 11.2903L22.4108 7.0003C22.5042 6.90762 22.6151 6.83429 22.7369 6.78453C22.8587 6.73476 22.9892 6.70953 23.1208 6.7103C23.2524 6.70953 23.3829 6.73476 23.5047 6.78453C23.6265 6.83429 23.7374 6.90762 23.8308 7.0003C24.0171 7.18766 24.1216 7.44111 24.1216 7.7053C24.1216 7.96948 24.0171 8.22293 23.8308 8.4103L20.2908 12.0003Z" fill="#556583" fill-opacity="0.4"/>
<path d="M11.2908 12.0003L14.8308 15.5403C15.017 15.7277 15.1216 15.9811 15.1216 16.2453C15.1216 16.5095 15.017 16.7629 14.8308 16.9503C14.7378 17.044 14.6272 17.1184 14.5054 17.1692C14.3835 17.22 14.2528 17.2461 14.1208 17.2461C13.9888 17.2461 13.8581 17.22 13.7362 17.1692C13.6144 17.1184 13.5038 17.044 13.4108 16.9503L9.1708 12.7103C9.07707 12.6173 9.00268 12.5067 8.95191 12.3849C8.90114 12.263 8.875 12.1323 8.875 12.0003C8.875 11.8683 8.90114 11.7376 8.95191 11.6157C9.00268 11.4939 9.07707 11.3833 9.1708 11.2903L13.4108 7.0003C13.5042 6.90762 13.6151 6.83429 13.7369 6.78453C13.8587 6.73476 13.9892 6.70953 14.1208 6.7103C14.2524 6.70953 14.3829 6.73476 14.5047 6.78453C14.6265 6.83429 14.7374 6.90762 14.8308 7.0003C15.0171 7.18766 15.1216 7.44111 15.1216 7.7053C15.1216 7.96948 15.0171 8.22293 14.8308 8.4103L11.2908 12.0003Z" fill="#556583" fill-opacity="0.4"/>
</svg>
