<svg width="33" height="24" viewBox="0 0 33 24" fill="none" xmlns="http://www.w3.org/2000/svg">
<path d="M12.7092 12.0003L9.1692 15.5403C8.98295 15.7277 8.87841 15.9811 8.87841 16.2453C8.87841 16.5095 8.98295 16.7629 9.1692 16.9503C9.26217 17.044 9.37277 17.1184 9.49463 17.1692C9.61648 17.22 9.74719 17.2461 9.8792 17.2461C10.0112 17.2461 10.1419 17.22 10.2638 17.1692C10.3856 17.1184 10.4962 17.044 10.5892 16.9503L14.8292 12.7103C14.9229 12.6173 14.9973 12.5067 15.0481 12.3849C15.0989 12.263 15.125 12.1323 15.125 12.0003C15.125 11.8683 15.0989 11.7376 15.0481 11.6157C14.9973 11.4939 14.9229 11.3833 14.8292 11.2903L10.5892 7.0003C10.4958 6.90762 10.3849 6.83429 10.2631 6.78453C10.1413 6.73476 10.0108 6.70953 9.8792 6.7103C9.74759 6.70953 9.61713 6.73476 9.49529 6.78453C9.37346 6.83429 9.26264 6.90762 9.1692 7.0003C8.98295 7.18766 8.87841 7.44111 8.87841 7.7053C8.87841 7.96948 8.98295 8.22293 9.1692 8.4103L12.7092 12.0003Z" fill="#556583"/>
<path d="M21.7092 12.0003L18.1692 15.5403C17.983 15.7277 17.8784 15.9811 17.8784 16.2453C17.8784 16.5095 17.983 16.7629 18.1692 16.9503C18.2622 17.044 18.3728 17.1184 18.4946 17.1692C18.6165 17.22 18.7472 17.2461 18.8792 17.2461C19.0112 17.2461 19.1419 17.22 19.2638 17.1692C19.3856 17.1184 19.4962 17.044 19.5892 16.9503L23.8292 12.7103C23.9229 12.6173 23.9973 12.5067 24.0481 12.3849C24.0989 12.263 24.125 12.1323 24.125 12.0003C24.125 11.8683 24.0989 11.7376 24.0481 11.6157C23.9973 11.4939 23.9229 11.3833 23.8292 11.2903L19.5892 7.0003C19.4958 6.90762 19.3849 6.83429 19.2631 6.78453C19.1413 6.73476 19.0108 6.70953 18.8792 6.7103C18.7476 6.70953 18.6171 6.73476 18.4953 6.78453C18.3735 6.83429 18.2626 6.90762 18.1692 7.0003C17.9829 7.18766 17.8784 7.44111 17.8784 7.7053C17.8784 7.96948 17.9829 8.22293 18.1692 8.4103L21.7092 12.0003Z" fill="#556583"/>
</svg>
