<svg width="31.000000" height="31.000000" viewBox="0 0 31 31" fill="none" xmlns="http://www.w3.org/2000/svg" xmlns:xlink="http://www.w3.org/1999/xlink">
	<desc>
			Created with Pixso.
	</desc>
	<defs>
		<clipPath id="clip276_10069">
			<rect id="Unsee" width="31.000000" height="31.000000" fill="white" fill-opacity="0"/>
		</clipPath>
	</defs>
	<g clip-path="url(#clip276_10069)">
		<path id="Icon Artwork" d="M3.92065 6.41113L5.375 5L24.375 23.5781L22.9319 25L19.4319 21.5781C18.125 22 16.7388 22.2227 15.2842 22.2227C9.60229 22.2227 4.75 18.7666 2.78418 13.8887C3.56836 11.9336 4.81836 10.2109 6.40918 8.84473L3.92065 6.41113ZM15.2842 10.5557C16.1882 10.5557 17.0554 10.9072 17.6948 11.5322C18.334 12.1572 18.6934 13.0049 18.6934 13.8887C18.6934 14.2773 18.625 14.6553 18.5 15L14.1477 10.7441C14.5 10.6221 14.8865 10.5557 15.2842 10.5557ZM15.2842 5.55566C20.9661 5.55566 25.8184 9.01074 27.7842 13.8887C26.8523 16.2002 25.2727 18.2002 23.2388 19.6553L21.625 18.0664C23.1707 17.0225 24.4434 15.5996 25.3069 13.8887C23.4319 10.1553 19.5569 7.77734 15.2842 7.77734C14.0457 7.77734 12.8296 7.97754 11.6934 8.33301L9.94336 6.63379C11.5796 5.94434 13.3865 5.55566 15.2842 5.55566ZM5.26147 13.8887C7.13647 17.6221 11.0115 20 15.2842 20C16.0684 20 16.8411 19.9219 17.5569 19.7666L14.9661 17.2227C13.3411 17.0557 12.0457 15.7891 11.875 14.2002L8.01147 10.4111C6.88647 11.3555 5.94336 12.5332 5.26147 13.8887Z" fill="#323232" fill-opacity="1.000000" fill-rule="nonzero"/>
	</g>
</svg>
