<svg width="26" height="20" viewBox="0 0 26 20" fill="none" xmlns="http://www.w3.org/2000/svg">
<path d="M1.92054 1.41111L3.37509 0L22.3751 18.5778L20.9319 20L17.4319 16.5778C16.1251 17 14.7387 17.2222 13.2842 17.2222C7.60236 17.2222 2.75009 13.7667 0.78418 8.88889C1.56827 6.93333 2.81827 5.21111 4.40918 3.84444L1.92054 1.41111ZM13.2842 5.55556C14.1883 5.55556 15.0554 5.90674 15.6948 6.53187C16.3341 7.15699 16.6933 8.00483 16.6933 8.88889C16.6933 9.27778 16.6251 9.65556 16.5001 10L12.1478 5.74444C12.5001 5.62222 12.8865 5.55556 13.2842 5.55556ZM13.2842 0.555556C18.966 0.555556 23.8183 4.01111 25.7842 8.88889C24.8524 11.2 23.2728 13.2 21.2387 14.6556L19.6251 13.0667C21.1705 12.0222 22.4433 10.6 23.3069 8.88889C21.4319 5.15556 17.5569 2.77778 13.2842 2.77778C12.0455 2.77778 10.8296 2.97778 9.69327 3.33333L7.94327 1.63333C9.57963 0.944444 11.3865 0.555556 13.2842 0.555556ZM3.26145 8.88889C5.13645 12.6222 9.01145 15 13.2842 15C14.0683 15 14.841 14.9222 15.5569 14.7667L12.966 12.2222C11.341 12.0556 10.0455 10.7889 9.87509 9.2L6.01145 5.41111C4.88645 6.35556 3.94327 7.53333 3.26145 8.88889Z" fill="white"/>
</svg>
