<svg width="26.869629" height="26.869141" viewBox="0 0 26.8696 26.8691" fill="none" xmlns="http://www.w3.org/2000/svg" xmlns:xlink="http://www.w3.org/1999/xlink">
	<desc>
			Created with Pixso.
	</desc>
	<defs>
		<clipPath id="clip4_9714">
			<rect id="u:user" width="25.750000" height="25.750000" transform="translate(0.559783 0.559783)" fill="white" fill-opacity="0"/>
		</clipPath>
	</defs>
	<rect id="u:user" width="25.750000" height="25.750000" transform="translate(0.559783 0.559783)" fill="#FFFFFF" fill-opacity="0"/>
	<g clip-path="url(#clip4_9714)">
		<path id="Vector" d="M17.5884 14.2305C18.686 13.3662 19.4873 12.1826 19.8804 10.8418C20.2737 9.50195 20.2395 8.07324 19.7825 6.75293C19.3257 5.43359 18.4688 4.28906 17.3311 3.47852C16.1934 2.66895 14.8315 2.2334 13.4348 2.2334C12.0383 2.2334 10.6763 2.66895 9.53857 3.47852C8.40088 4.28906 7.54395 5.43359 7.08716 6.75293C6.63013 8.07324 6.59595 9.50195 6.98926 10.8418C7.38257 12.1826 8.18359 13.3662 9.28125 14.2305C7.40039 14.9834 5.75952 16.2334 4.53296 17.8467C3.30664 19.459 2.54102 21.374 2.31763 23.3877C2.30127 23.5352 2.31421 23.6836 2.35571 23.8262C2.39697 23.9678 2.46582 24.1006 2.55835 24.2158C2.74512 24.4492 3.01709 24.5986 3.31396 24.6309C3.61084 24.6631 3.90869 24.5771 4.1416 24.3896C4.37476 24.2031 4.52393 23.9316 4.55664 23.6348C4.80249 21.4463 5.84595 19.4248 7.48804 17.957C9.12988 16.4893 11.2549 15.6777 13.4573 15.6777C15.6594 15.6777 17.7847 16.4893 19.4265 17.957C21.0684 19.4248 22.1118 21.4463 22.3577 23.6348C22.3882 23.9092 22.5195 24.1641 22.7263 24.3477C22.9329 24.5312 23.2004 24.6328 23.4773 24.6309L23.6006 24.6309C23.894 24.5967 24.1621 24.4482 24.3467 24.2178C24.5312 23.9873 24.6172 23.6934 24.5857 23.3994C24.3613 21.3799 23.5913 19.46 22.3586 17.8447C21.126 16.2285 19.4771 14.9795 17.5884 14.2305ZM13.4348 13.4355C12.5491 13.4355 11.6833 13.1729 10.9468 12.6807C10.2104 12.1885 9.63647 11.4893 9.29736 10.6709C8.9585 9.85254 8.86987 8.95215 9.04272 8.08301C9.21533 7.21484 9.64185 6.41699 10.2683 5.79004C10.8945 5.16406 11.6924 4.7373 12.5613 4.56445C13.4299 4.3916 14.3303 4.48047 15.1487 4.81934C15.9668 5.1582 16.6663 5.73242 17.1584 6.46875C17.6504 7.20508 17.9131 8.07129 17.9131 8.95703C17.9131 10.1445 17.4412 11.2842 16.6013 12.124C15.7617 12.9639 14.6226 13.4355 13.4348 13.4355Z" fill="#565656" fill-opacity="1.000000" fill-rule="nonzero"/>
	</g>
</svg>
