<svg width="35" height="35" viewBox="0 0 35 35" fill="none" xmlns="http://www.w3.org/2000/svg">
<path d="M22.7497 0.416016H12.2683C2.69449 0.416016 0.416748 2.69375 0.416748 12.2497V22.7311C0.416748 32.3048 2.67677 34.5827 12.2505 34.5827H22.7319C32.3057 34.5827 34.5834 32.3227 34.5834 22.7489V12.2676C34.5834 2.69375 32.3234 0.416016 22.7497 0.416016ZM27.9992 24.7953H25.5079C24.5648 24.7953 24.28 24.0301 22.5895 22.3396C21.1125 20.916 20.4897 20.738 20.116 20.738C19.5999 20.738 19.4575 20.8804 19.4575 21.5922V23.8344C19.4575 24.4395 19.2618 24.7953 17.6781 24.7953C16.1412 24.6921 14.6509 24.2252 13.3298 23.4332C12.0088 22.6411 10.8947 21.5466 10.0795 20.2397C8.14415 17.8308 6.79755 15.0036 6.14682 11.9828C6.14682 11.6091 6.28914 11.271 7.00099 11.271H9.49227C10.1329 11.271 10.3643 11.5557 10.6134 12.2142C11.8234 15.7732 13.8877 18.8695 14.724 18.8695C15.0444 18.8695 15.1867 18.7272 15.1867 17.9264V14.2606C15.0799 12.5879 14.1902 12.4455 14.1902 11.8405C14.2019 11.6809 14.2754 11.5321 14.395 11.4258C14.5146 11.3195 14.6709 11.2639 14.8308 11.271H18.7458C19.2796 11.271 19.4575 11.5379 19.4575 12.1785V17.1257C19.4575 17.6595 19.6889 17.8374 19.849 17.8374C20.1694 17.8374 20.4184 17.6595 21.0057 17.0723C22.2676 15.5334 23.2987 13.8189 24.0665 11.9828C24.1449 11.7619 24.2934 11.5727 24.4894 11.4442C24.6855 11.3156 24.9182 11.2548 25.152 11.271H27.6433C28.3907 11.271 28.5509 11.6447 28.3907 12.1785C27.4842 14.2086 26.3627 16.1356 25.0453 17.9264C24.7783 18.3357 24.6716 18.5492 25.0453 19.0297C25.2944 19.4034 26.1664 20.133 26.7536 20.827C27.6077 21.679 28.317 22.6648 28.8533 23.7454C29.0669 24.4395 28.711 24.7953 27.9992 24.7953V24.7953Z" fill="white" fill-opacity="0.9"/>
</svg>
