<svg width="41" height="41" viewBox="0 0 41 41" fill="none" xmlns="http://www.w3.org/2000/svg">
<path d="M39.2918 16.5867C39.3762 14.1415 38.8415 11.7146 37.7372 9.53131C36.9879 8.63546 35.9481 8.0309 34.7988 7.82298C30.0454 7.39167 25.2724 7.21489 20.5001 7.2934C15.7452 7.21133 10.9893 7.3824 6.25259 7.8059C5.31611 7.97625 4.44947 8.4155 3.75842 9.07006C2.22092 10.488 2.05009 12.9138 1.87925 14.9638C1.63139 18.6497 1.63139 22.348 1.87925 26.0338C1.92868 27.1876 2.10047 28.3329 2.39175 29.4505C2.59774 30.3133 3.01448 31.1116 3.60467 31.7738C4.30042 32.463 5.18724 32.9273 6.15009 33.1063C9.83311 33.5609 13.5441 33.7493 17.2543 33.6701C23.2334 33.7555 28.478 33.6701 34.6792 33.1917C35.6657 33.0237 36.5775 32.5589 37.293 31.8592C37.7713 31.3808 38.1285 30.7951 38.3351 30.1509C38.946 28.2762 39.2461 26.3142 39.2234 24.3426C39.2917 23.3859 39.2918 17.6117 39.2918 16.5867ZM16.6393 25.3676V14.793L26.7526 20.1059C23.9168 21.6776 20.1755 23.4542 16.6393 25.3676Z" fill="white" fill-opacity="0.9"/>
</svg>
